<?xml version="1.0" encoding="UTF-8" standalone="no"?>
<!DOCTYPE svg PUBLIC "-//W3C//DTD SVG 1.1//EN"
 "http://www.w3.org/Graphics/SVG/1.1/DTD/svg11.dtd">
<!-- Generated by graphviz version 14.1.1 (20251213.1925)
 -->
<!-- Title: ch9121x_basic_config Pages: 1 -->
<svg width="308pt" height="1074pt"
 viewBox="0.00 0.00 308.00 1074.00" xmlns="http://www.w3.org/2000/svg" xmlns:xlink="http://www.w3.org/1999/xlink">
<g id="graph0" class="graph" transform="scale(1 1) rotate(0) translate(4 1070)">
<title>ch9121x_basic_config</title>
<!-- Node1 -->
<g id="Node000001" class="node">
<title>Node1</title>
<g id="a_Node000001"><a xlink:title="basic example config">
<polygon fill="#999999" stroke="#666666" points="112.75,-543 0,-543 0,-523 112.75,-523 112.75,-543"/>
<text xml:space="preserve" text-anchor="middle" x="56.38" y="-529.5" font-family="Helvetica,sans-Serif" font-size="10.00">ch9121x_basic_config</text>
</a>
</g>
</g>
<!-- Node2 -->
<g id="Node000002" class="node">
<title>Node2</title>
<g id="a_Node000002"><a xlink:href="group__ch9121x__base__driver.html#ga94282668c4063ec462a948df795bf5d6" target="_top" xlink:title="convert the arp retry period to the register raw data">
<polygon fill="white" stroke="#666666" points="288.12,-1066 160.38,-1066 160.38,-1034 288.12,-1034 288.12,-1066"/>
<text xml:space="preserve" text-anchor="start" x="168.38" y="-1052.5" font-family="Helvetica,sans-Serif" font-size="10.00">ch9121x_arp_retry_period</text>
<text xml:space="preserve" text-anchor="middle" x="224.25" y="-1040.5" font-family="Helvetica,sans-Serif" font-size="10.00">_convert_to_register</text>
</a>
</g>
</g>
<!-- Node1&#45;&gt;Node2 -->
<g id="edge1_Node000001_Node000002" class="edge">
<title>Node1&#45;&gt;Node2</title>
<g id="a_edge1_Node000001_Node000002"><a xlink:title=" ">
<path fill="none" stroke="#63b8ff" d="M57.89,-543.16C61.31,-606.66 82.65,-948.93 148.75,-1025 149.45,-1025.81 150.19,-1026.6 150.94,-1027.36"/>
<polygon fill="#63b8ff" stroke="#63b8ff" points="148.73,-1030.07 158.71,-1033.61 153.12,-1024.61 148.73,-1030.07"/>
</a>
</g>
</g>
<!-- Node3 -->
<g id="Node000003" class="node">
<title>Node3</title>
<g id="a_Node000003"><a xlink:href="group__ch9121x__base__driver.html#ga3eae14ebf28b4b3c0c16e3b8107489c7" target="_top" xlink:title="config and reset the chip">
<polygon fill="white" stroke="#666666" points="276.88,-1016 171.62,-1016 171.62,-984 276.88,-984 276.88,-1016"/>
<text xml:space="preserve" text-anchor="start" x="179.62" y="-1002.5" font-family="Helvetica,sans-Serif" font-size="10.00">ch9121x_config_and</text>
<text xml:space="preserve" text-anchor="middle" x="224.25" y="-990.5" font-family="Helvetica,sans-Serif" font-size="10.00">_reset</text>
</a>
</g>
</g>
<!-- Node1&#45;&gt;Node3 -->
<g id="edge2_Node000001_Node000003" class="edge">
<title>Node1&#45;&gt;Node3</title>
<g id="a_edge2_Node000001_Node000003"><a xlink:title=" ">
<path fill="none" stroke="#63b8ff" d="M58.13,-543.27C62.74,-603.21 88.83,-907.43 148.75,-975 152.35,-979.06 156.63,-982.46 161.29,-985.31"/>
<polygon fill="#63b8ff" stroke="#63b8ff" points="159.46,-988.31 169.96,-989.74 162.64,-982.07 159.46,-988.31"/>
</a>
</g>
</g>
<!-- Node4 -->
<g id="Node000004" class="node">
<title>Node4</title>
<g id="a_Node000004"><a xlink:href="group__ch9121x__interface__driver.html#ga3341e88131cc4c082b248822d0fd4c39" target="_top" xlink:title="interface print format data">
<polygon fill="white" stroke="#666666" points="287.75,-966 160.75,-966 160.75,-934 287.75,-934 287.75,-966"/>
<text xml:space="preserve" text-anchor="start" x="168.75" y="-952.5" font-family="Helvetica,sans-Serif" font-size="10.00">ch9121x_interface_debug</text>
<text xml:space="preserve" text-anchor="middle" x="224.25" y="-940.5" font-family="Helvetica,sans-Serif" font-size="10.00">_print</text>
</a>
</g>
</g>
<!-- Node1&#45;&gt;Node4 -->
<g id="edge3_Node000001_Node000004" class="edge">
<title>Node1&#45;&gt;Node4</title>
<g id="a_edge3_Node000001_Node000004"><a xlink:title=" ">
<path fill="none" stroke="#63b8ff" d="M58.41,-543.19C64.28,-598.84 94.92,-865.81 148.75,-925 149.6,-925.93 150.48,-926.83 151.4,-927.7"/>
<polygon fill="#63b8ff" stroke="#63b8ff" points="149.16,-930.39 159.22,-933.69 153.42,-924.83 149.16,-930.39"/>
</a>
</g>
</g>
<!-- Node5 -->
<g id="Node000005" class="node">
<title>Node5</title>
<g id="a_Node000005"><a xlink:href="group__ch9121x__base__driver.html#gaf28c5d7783aa54a229a80581f3959db1" target="_top" xlink:title="save to eeprom">
<polygon fill="white" stroke="#666666" points="289.25,-916 159.25,-916 159.25,-896 289.25,-896 289.25,-916"/>
<text xml:space="preserve" text-anchor="middle" x="224.25" y="-902.5" font-family="Helvetica,sans-Serif" font-size="10.00">ch9121x_save_to_eeprom</text>
</a>
</g>
</g>
<!-- Node1&#45;&gt;Node5 -->
<g id="edge4_Node000001_Node000005" class="edge">
<title>Node1&#45;&gt;Node5</title>
<g id="a_edge4_Node000001_Node000005"><a xlink:title=" ">
<path fill="none" stroke="#63b8ff" d="M58.62,-543.29C65.2,-596.08 97.62,-836.02 148.75,-887 149.49,-887.74 150.26,-888.46 151.05,-889.14"/>
<polygon fill="#63b8ff" stroke="#63b8ff" points="148.84,-891.86 159.05,-894.68 152.82,-886.11 148.84,-891.86"/>
</a>
</g>
</g>
<!-- Node6 -->
<g id="Node000006" class="node">
<title>Node6</title>
<g id="a_Node000006"><a xlink:href="group__ch9121x__base__driver.html#gaf78e38337a033ca1137dbdabdd1e0f01" target="_top" xlink:title="set arp retry">
<polygon fill="white" stroke="#666666" points="281.75,-878 166.75,-878 166.75,-858 281.75,-858 281.75,-878"/>
<text xml:space="preserve" text-anchor="middle" x="224.25" y="-864.5" font-family="Helvetica,sans-Serif" font-size="10.00">ch9121x_set_arp_retry</text>
</a>
</g>
</g>
<!-- Node1&#45;&gt;Node6 -->
<g id="edge5_Node000001_Node000006" class="edge">
<title>Node1&#45;&gt;Node6</title>
<g id="a_edge5_Node000001_Node000006"><a xlink:title=" ">
<path fill="none" stroke="#63b8ff" d="M56.97,-543.28C55.84,-587.15 57.48,-760.59 148.75,-849 151.13,-851.31 153.75,-853.35 156.54,-855.15"/>
<polygon fill="#63b8ff" stroke="#63b8ff" points="154.77,-858.17 165.25,-859.69 158.01,-851.96 154.77,-858.17"/>
</a>
</g>
</g>
<!-- Node7 -->
<g id="Node000007" class="node">
<title>Node7</title>
<g id="a_Node000007"><a xlink:href="group__ch9121x__base__driver.html#ga15f22ee564463cb3a83efca834653ba5" target="_top" xlink:title="set dest ip">
<polygon fill="white" stroke="#666666" points="278.38,-840 170.12,-840 170.12,-820 278.38,-820 278.38,-840"/>
<text xml:space="preserve" text-anchor="middle" x="224.25" y="-826.5" font-family="Helvetica,sans-Serif" font-size="10.00">ch9121x_set_dest_ip</text>
</a>
</g>
</g>
<!-- Node1&#45;&gt;Node7 -->
<g id="edge6_Node000001_Node000007" class="edge">
<title>Node1&#45;&gt;Node7</title>
<g id="a_edge6_Node000001_Node000007"><a xlink:title=" ">
<path fill="none" stroke="#63b8ff" d="M57.44,-543.42C58.3,-584.23 67.08,-734.69 148.75,-811 152,-814.04 155.67,-816.61 159.6,-818.78"/>
<polygon fill="#63b8ff" stroke="#63b8ff" points="157.85,-821.83 168.4,-822.77 160.74,-815.46 157.85,-821.83"/>
</a>
</g>
</g>
<!-- Node8 -->
<g id="Node000008" class="node">
<title>Node8</title>
<g id="a_Node000008"><a xlink:href="group__ch9121x__base__driver.html#ga0ccdc7b126ebb5eeb7cad5e69990916b" target="_top" xlink:title="set dest port">
<polygon fill="white" stroke="#666666" points="282.88,-802 165.62,-802 165.62,-782 282.88,-782 282.88,-802"/>
<text xml:space="preserve" text-anchor="middle" x="224.25" y="-788.5" font-family="Helvetica,sans-Serif" font-size="10.00">ch9121x_set_dest_port</text>
</a>
</g>
</g>
<!-- Node1&#45;&gt;Node8 -->
<g id="edge7_Node000001_Node000008" class="edge">
<title>Node1&#45;&gt;Node8</title>
<g id="a_edge7_Node000001_Node000008"><a xlink:title=" ">
<path fill="none" stroke="#63b8ff" d="M58.04,-543.27C61.03,-580.34 76.38,-708.45 148.75,-773 150.81,-774.84 153.02,-776.5 155.35,-778.01"/>
<polygon fill="#63b8ff" stroke="#63b8ff" points="153.65,-781.07 164.13,-782.65 156.93,-774.88 153.65,-781.07"/>
</a>
</g>
</g>
<!-- Node9 -->
<g id="Node000009" class="node">
<title>Node9</title>
<g id="a_Node000009"><a xlink:href="group__ch9121x__base__driver.html#gaacd14c29adebcc22f1bfcdd2b102a786" target="_top" xlink:title="enable or disable dhcp">
<polygon fill="white" stroke="#666666" points="273.12,-764 175.38,-764 175.38,-744 273.12,-744 273.12,-764"/>
<text xml:space="preserve" text-anchor="middle" x="224.25" y="-750.5" font-family="Helvetica,sans-Serif" font-size="10.00">ch9121x_set_dhcp</text>
</a>
</g>
</g>
<!-- Node1&#45;&gt;Node9 -->
<g id="edge8_Node000001_Node000009" class="edge">
<title>Node1&#45;&gt;Node9</title>
<g id="a_edge8_Node000001_Node000009"><a xlink:title=" ">
<path fill="none" stroke="#63b8ff" d="M58.85,-543.25C64.19,-576.48 85.64,-682.07 148.75,-735 153.42,-738.91 158.79,-742.04 164.46,-744.52"/>
<polygon fill="#63b8ff" stroke="#63b8ff" points="162.9,-747.68 173.49,-747.83 165.31,-741.11 162.9,-747.68"/>
</a>
</g>
</g>
<!-- Node10 -->
<g id="Node000010" class="node">
<title>Node10</title>
<g id="a_Node000010"><a xlink:href="group__ch9121x__base__driver.html#gabfb253a5ce2539ed7caa68b2cab3d38a" target="_top" xlink:title="enable or disable disconnect with no rj45">
<polygon fill="white" stroke="#666666" points="286.25,-726 162.25,-726 162.25,-694 286.25,-694 286.25,-726"/>
<text xml:space="preserve" text-anchor="start" x="170.25" y="-712.5" font-family="Helvetica,sans-Serif" font-size="10.00">ch9121x_set_disconnect</text>
<text xml:space="preserve" text-anchor="middle" x="224.25" y="-700.5" font-family="Helvetica,sans-Serif" font-size="10.00">_with_no_rj45</text>
</a>
</g>
</g>
<!-- Node1&#45;&gt;Node10 -->
<g id="edge9_Node000001_Node000010" class="edge">
<title>Node1&#45;&gt;Node10</title>
<g id="a_edge9_Node000001_Node000010"><a xlink:title=" ">
<path fill="none" stroke="#63b8ff" d="M60.67,-543.19C69.98,-570.34 99.06,-645.09 148.75,-685 149.89,-685.91 151.06,-686.79 152.26,-687.64"/>
<polygon fill="#63b8ff" stroke="#63b8ff" points="150.32,-690.56 160.69,-692.77 153.96,-684.58 150.32,-690.56"/>
</a>
</g>
</g>
<!-- Node11 -->
<g id="Node000011" class="node">
<title>Node11</title>
<g id="a_Node000011"><a xlink:href="group__ch9121x__base__driver.html#gab2c3c4f8a4c191b83f2d1216610a39f4" target="_top" xlink:title="set eth cfg">
<polygon fill="white" stroke="#666666" points="278.75,-676 169.75,-676 169.75,-656 278.75,-656 278.75,-676"/>
<text xml:space="preserve" text-anchor="middle" x="224.25" y="-662.5" font-family="Helvetica,sans-Serif" font-size="10.00">ch9121x_set_eth_cfg</text>
</a>
</g>
</g>
<!-- Node1&#45;&gt;Node11 -->
<g id="edge10_Node000001_Node000011" class="edge">
<title>Node1&#45;&gt;Node11</title>
<g id="a_edge10_Node000001_Node000011"><a xlink:title=" ">
<path fill="none" stroke="#63b8ff" d="M62.64,-543.37C74.64,-565.94 106.32,-619.66 148.75,-647 151.99,-649.09 155.45,-650.95 159.03,-652.6"/>
<polygon fill="#63b8ff" stroke="#63b8ff" points="157.4,-655.72 167.99,-656.18 160,-649.22 157.4,-655.72"/>
</a>
</g>
</g>
<!-- Node12 -->
<g id="Node000012" class="node">
<title>Node12</title>
<g id="a_Node000012"><a xlink:href="group__ch9121x__base__driver.html#gad554e584ed287c25d2edf1211d50346a" target="_top" xlink:title="set gateway">
<polygon fill="white" stroke="#666666" points="281,-638 167.5,-638 167.5,-618 281,-618 281,-638"/>
<text xml:space="preserve" text-anchor="middle" x="224.25" y="-624.5" font-family="Helvetica,sans-Serif" font-size="10.00">ch9121x_set_gateway</text>
</a>
</g>
</g>
<!-- Node1&#45;&gt;Node12 -->
<g id="edge11_Node000001_Node000012" class="edge">
<title>Node1&#45;&gt;Node12</title>
<g id="a_edge11_Node000001_Node000012"><a xlink:title=" ">
<path fill="none" stroke="#63b8ff" d="M66.72,-543.29C82.17,-559.69 114.75,-591.65 148.75,-609 152.18,-610.75 155.79,-612.35 159.49,-613.81"/>
<polygon fill="#63b8ff" stroke="#63b8ff" points="158.06,-617.01 168.65,-617.05 160.39,-610.41 158.06,-617.01"/>
</a>
</g>
</g>
<!-- Node13 -->
<g id="Node000013" class="node">
<title>Node13</title>
<g id="a_Node000013"><a xlink:href="group__ch9121x__base__driver.html#gac49d370c8c0489ec8161c3eaaf1efcbc" target="_top" xlink:title="set ip address">
<polygon fill="white" stroke="#666666" points="266.38,-600 182.12,-600 182.12,-580 266.38,-580 266.38,-600"/>
<text xml:space="preserve" text-anchor="middle" x="224.25" y="-586.5" font-family="Helvetica,sans-Serif" font-size="10.00">ch9121x_set_ip</text>
</a>
</g>
</g>
<!-- Node1&#45;&gt;Node13 -->
<g id="edge12_Node000001_Node000013" class="edge">
<title>Node1&#45;&gt;Node13</title>
<g id="a_edge12_Node000001_Node000013"><a xlink:title=" ">
<path fill="none" stroke="#63b8ff" d="M79.93,-543.45C98.22,-551.67 124.79,-563.01 148.75,-571 155.9,-573.38 163.51,-575.64 171.04,-577.71"/>
<polygon fill="#63b8ff" stroke="#63b8ff" points="169.93,-581.03 180.49,-580.21 171.72,-574.27 169.93,-581.03"/>
</a>
</g>
</g>
<!-- Node14 -->
<g id="Node000014" class="node">
<title>Node14</title>
<g id="a_Node000014"><a xlink:href="group__ch9121x__base__driver.html#ga712df49d28696a13598176dfe1eca873" target="_top" xlink:title="set mode">
<polygon fill="white" stroke="#666666" points="274.62,-562 173.88,-562 173.88,-542 274.62,-542 274.62,-562"/>
<text xml:space="preserve" text-anchor="middle" x="224.25" y="-548.5" font-family="Helvetica,sans-Serif" font-size="10.00">ch9121x_set_mode</text>
</a>
</g>
</g>
<!-- Node1&#45;&gt;Node14 -->
<g id="edge13_Node000001_Node000014" class="edge">
<title>Node1&#45;&gt;Node14</title>
<g id="a_edge13_Node000001_Node000014"><a xlink:title=" ">
<path fill="none" stroke="#63b8ff" d="M113.07,-539.38C128.98,-541.2 146.39,-543.2 162.57,-545.05"/>
<polygon fill="#63b8ff" stroke="#63b8ff" points="161.72,-548.47 172.05,-546.14 162.51,-541.52 161.72,-548.47"/>
</a>
</g>
</g>
<!-- Node15 -->
<g id="Node000015" class="node">
<title>Node15</title>
<g id="a_Node000015"><a xlink:href="group__ch9121x__base__driver.html#ga87dc10f0275124cbc70ad22a1c8faa03" target="_top" xlink:title="enable or disable uart port2">
<polygon fill="white" stroke="#666666" points="273.5,-524 175,-524 175,-504 273.5,-504 273.5,-524"/>
<text xml:space="preserve" text-anchor="middle" x="224.25" y="-510.5" font-family="Helvetica,sans-Serif" font-size="10.00">ch9121x_set_port2</text>
</a>
</g>
</g>
<!-- Node1&#45;&gt;Node15 -->
<g id="edge14_Node000001_Node000015" class="edge">
<title>Node1&#45;&gt;Node15</title>
<g id="a_edge14_Node000001_Node000015"><a xlink:title=" ">
<path fill="none" stroke="#63b8ff" d="M113.07,-526.62C129.28,-524.76 147.06,-522.73 163.51,-520.84"/>
<polygon fill="#63b8ff" stroke="#63b8ff" points="163.61,-524.35 173.14,-519.74 162.81,-517.4 163.61,-524.35"/>
</a>
</g>
</g>
<!-- Node16 -->
<g id="Node000016" class="node">
<title>Node16</title>
<g id="a_Node000016"><a xlink:href="group__ch9121x__base__driver.html#ga9955b0c0ce86a79fee1a434131775e40" target="_top" xlink:title="set source port">
<polygon fill="white" stroke="#666666" points="288.12,-486 160.38,-486 160.38,-466 288.12,-466 288.12,-486"/>
<text xml:space="preserve" text-anchor="middle" x="224.25" y="-472.5" font-family="Helvetica,sans-Serif" font-size="10.00">ch9121x_set_source_port</text>
</a>
</g>
</g>
<!-- Node1&#45;&gt;Node16 -->
<g id="edge15_Node000001_Node000016" class="edge">
<title>Node1&#45;&gt;Node16</title>
<g id="a_edge15_Node000001_Node000016"><a xlink:title=" ">
<path fill="none" stroke="#63b8ff" d="M79.93,-522.55C98.22,-514.33 124.79,-502.99 148.75,-495 154.61,-493.05 160.78,-491.18 166.96,-489.43"/>
<polygon fill="#63b8ff" stroke="#63b8ff" points="167.84,-492.82 176.57,-486.81 166.01,-486.06 167.84,-492.82"/>
</a>
</g>
</g>
<!-- Node17 -->
<g id="Node000017" class="node">
<title>Node17</title>
<g id="a_Node000017"><a xlink:href="group__ch9121x__base__driver.html#gaf930d360e6478f3ec257f3ed50571658" target="_top" xlink:title="enable or disable random source port number">
<polygon fill="white" stroke="#666666" points="277.25,-448 171.25,-448 171.25,-416 277.25,-416 277.25,-448"/>
<text xml:space="preserve" text-anchor="start" x="179.25" y="-434.5" font-family="Helvetica,sans-Serif" font-size="10.00">ch9121x_set_source</text>
<text xml:space="preserve" text-anchor="middle" x="224.25" y="-422.5" font-family="Helvetica,sans-Serif" font-size="10.00">_port_random</text>
</a>
</g>
</g>
<!-- Node1&#45;&gt;Node17 -->
<g id="edge16_Node000001_Node000017" class="edge">
<title>Node1&#45;&gt;Node17</title>
<g id="a_edge16_Node000001_Node000017"><a xlink:title=" ">
<path fill="none" stroke="#63b8ff" d="M67.12,-522.74C82.89,-506.66 115.59,-475.49 148.75,-457 152.53,-454.89 156.52,-452.92 160.6,-451.09"/>
<polygon fill="#63b8ff" stroke="#63b8ff" points="161.6,-454.46 169.49,-447.4 158.92,-448 161.6,-454.46"/>
</a>
</g>
</g>
<!-- Node18 -->
<g id="Node000018" class="node">
<title>Node18</title>
<g id="a_Node000018"><a xlink:href="group__ch9121x__base__driver.html#ga7265767fe107373f1b724f2aec7c2e34" target="_top" xlink:title="set subnet mask">
<polygon fill="white" stroke="#666666" points="291.88,-398 156.62,-398 156.62,-378 291.88,-378 291.88,-398"/>
<text xml:space="preserve" text-anchor="middle" x="224.25" y="-384.5" font-family="Helvetica,sans-Serif" font-size="10.00">ch9121x_set_subnet_mask</text>
</a>
</g>
</g>
<!-- Node1&#45;&gt;Node18 -->
<g id="edge17_Node000001_Node000018" class="edge">
<title>Node1&#45;&gt;Node18</title>
<g id="a_edge17_Node000001_Node000018"><a xlink:title=" ">
<path fill="none" stroke="#63b8ff" d="M61.83,-522.64C72.81,-498.39 103.59,-437.66 148.75,-407 150.73,-405.65 152.81,-404.4 154.95,-403.24"/>
<polygon fill="#63b8ff" stroke="#63b8ff" points="156.38,-406.43 163.98,-399.05 153.44,-400.08 156.38,-406.43"/>
</a>
</g>
</g>
<!-- Node19 -->
<g id="Node000019" class="node">
<title>Node19</title>
<g id="a_Node000019"><a xlink:href="group__ch9121x__base__driver.html#gaa052726602e1f8cfd295ac3e659ce5b4" target="_top" xlink:title="set tcp retry mode">
<polygon fill="white" stroke="#666666" points="296.38,-360 152.12,-360 152.12,-340 296.38,-340 296.38,-360"/>
<text xml:space="preserve" text-anchor="middle" x="224.25" y="-346.5" font-family="Helvetica,sans-Serif" font-size="10.00">ch9121x_set_tcp_retry_mode</text>
</a>
</g>
</g>
<!-- Node1&#45;&gt;Node19 -->
<g id="edge18_Node000001_Node000019" class="edge">
<title>Node1&#45;&gt;Node19</title>
<g id="a_edge18_Node000001_Node000019"><a xlink:title=" ">
<path fill="none" stroke="#63b8ff" d="M60.03,-522.65C68.03,-493.57 94.77,-410.55 148.75,-369 150.28,-367.82 151.87,-366.72 153.51,-365.69"/>
<polygon fill="#63b8ff" stroke="#63b8ff" points="154.87,-368.93 162.08,-361.17 151.6,-362.74 154.87,-368.93"/>
</a>
</g>
</g>
<!-- Node20 -->
<g id="Node000020" class="node">
<title>Node20</title>
<g id="a_Node000020"><a xlink:href="group__ch9121x__base__driver.html#ga12911254e0b498e61da87bb24a339d46" target="_top" xlink:title="set uart baud">
<polygon fill="white" stroke="#666666" points="284,-322 164.5,-322 164.5,-302 284,-302 284,-322"/>
<text xml:space="preserve" text-anchor="middle" x="224.25" y="-308.5" font-family="Helvetica,sans-Serif" font-size="10.00">ch9121x_set_uart_baud</text>
</a>
</g>
</g>
<!-- Node1&#45;&gt;Node20 -->
<g id="edge19_Node000001_Node000020" class="edge">
<title>Node1&#45;&gt;Node20</title>
<g id="a_edge19_Node000001_Node000020"><a xlink:title=" ">
<path fill="none" stroke="#63b8ff" d="M58.85,-522.75C64.19,-489.52 85.64,-383.93 148.75,-331 150.48,-329.55 152.3,-328.21 154.2,-326.97"/>
<polygon fill="#63b8ff" stroke="#63b8ff" points="155.74,-330.12 162.89,-322.3 152.43,-323.95 155.74,-330.12"/>
</a>
</g>
</g>
<!-- Node21 -->
<g id="Node000021" class="node">
<title>Node21</title>
<g id="a_Node000021"><a xlink:href="group__ch9121x__base__driver.html#gafd1ba49f3b98f2011176aee791cf25bb" target="_top" xlink:title="set uart buffer length">
<polygon fill="white" stroke="#666666" points="285.5,-284 163,-284 163,-252 285.5,-252 285.5,-284"/>
<text xml:space="preserve" text-anchor="start" x="171" y="-270.5" font-family="Helvetica,sans-Serif" font-size="10.00">ch9121x_set_uart_buffer</text>
<text xml:space="preserve" text-anchor="middle" x="224.25" y="-258.5" font-family="Helvetica,sans-Serif" font-size="10.00">_length</text>
</a>
</g>
</g>
<!-- Node1&#45;&gt;Node21 -->
<g id="edge20_Node000001_Node000021" class="edge">
<title>Node1&#45;&gt;Node21</title>
<g id="a_edge20_Node000001_Node000021"><a xlink:title=" ">
<path fill="none" stroke="#63b8ff" d="M58.23,-522.65C61.84,-485.87 78.98,-360.03 148.75,-293 150.17,-291.64 151.67,-290.35 153.23,-289.13"/>
<polygon fill="#63b8ff" stroke="#63b8ff" points="155.05,-292.11 161.5,-283.71 151.22,-286.26 155.05,-292.11"/>
</a>
</g>
</g>
<!-- Node22 -->
<g id="Node000022" class="node">
<title>Node22</title>
<g id="a_Node000022"><a xlink:href="group__ch9121x__base__driver.html#ga460c858e0243a9cc19b4b47eb4414f0e" target="_top" xlink:title="set uart clock mode">
<polygon fill="white" stroke="#666666" points="299.75,-234 148.75,-234 148.75,-214 299.75,-214 299.75,-234"/>
<text xml:space="preserve" text-anchor="middle" x="224.25" y="-220.5" font-family="Helvetica,sans-Serif" font-size="10.00">ch9121x_set_uart_clock_mode</text>
</a>
</g>
</g>
<!-- Node1&#45;&gt;Node22 -->
<g id="edge21_Node000001_Node000022" class="edge">
<title>Node1&#45;&gt;Node22</title>
<g id="a_edge21_Node000001_Node000022"><a xlink:title=" ">
<path fill="none" stroke="#63b8ff" d="M57.28,-522.72C57.48,-481.05 64,-323.17 148.75,-243 149.65,-242.15 150.58,-241.34 151.53,-240.56"/>
<polygon fill="#63b8ff" stroke="#63b8ff" points="153.13,-243.7 159.58,-235.3 149.29,-237.85 153.13,-243.7"/>
</a>
</g>
</g>
<!-- Node23 -->
<g id="Node000023" class="node">
<title>Node23</title>
<g id="a_Node000023"><a xlink:href="group__ch9121x__base__driver.html#gafed7d314bdd78cda38977be39f713d75" target="_top" xlink:title="set uart config">
<polygon fill="white" stroke="#666666" points="286.62,-196 161.88,-196 161.88,-176 286.62,-176 286.62,-196"/>
<text xml:space="preserve" text-anchor="middle" x="224.25" y="-182.5" font-family="Helvetica,sans-Serif" font-size="10.00">ch9121x_set_uart_config</text>
</a>
</g>
</g>
<!-- Node1&#45;&gt;Node23 -->
<g id="edge22_Node000001_Node000023" class="edge">
<title>Node1&#45;&gt;Node23</title>
<g id="a_edge22_Node000001_Node000023"><a xlink:title=" ">
<path fill="none" stroke="#63b8ff" d="M56.84,-522.65C55.12,-477.65 54.52,-297.18 148.75,-205 149.8,-203.98 150.89,-203.01 152.03,-202.08"/>
<polygon fill="#63b8ff" stroke="#63b8ff" points="153.69,-205.18 160.16,-196.79 149.87,-199.31 153.69,-205.18"/>
</a>
</g>
</g>
<!-- Node24 -->
<g id="Node000024" class="node">
<title>Node24</title>
<g id="a_Node000024"><a xlink:href="group__ch9121x__base__driver.html#ga3c89acd2c485b02984b7a0ceeb103982" target="_top" xlink:title="enable or disable uart auto flush">
<polygon fill="white" stroke="#666666" points="284,-158 164.5,-158 164.5,-138 284,-138 284,-158"/>
<text xml:space="preserve" text-anchor="middle" x="224.25" y="-144.5" font-family="Helvetica,sans-Serif" font-size="10.00">ch9121x_set_uart_flush</text>
</a>
</g>
</g>
<!-- Node1&#45;&gt;Node24 -->
<g id="edge23_Node000001_Node000024" class="edge">
<title>Node1&#45;&gt;Node24</title>
<g id="a_edge23_Node000001_Node000024"><a xlink:title=" ">
<path fill="none" stroke="#63b8ff" d="M58.53,-522.72C64.75,-468.89 96.09,-219.93 148.75,-167 150.55,-165.19 152.49,-163.55 154.55,-162.06"/>
<polygon fill="#63b8ff" stroke="#63b8ff" points="156.03,-165.25 162.9,-157.18 152.5,-159.2 156.03,-165.25"/>
</a>
</g>
</g>
<!-- Node25 -->
<g id="Node000025" class="node">
<title>Node25</title>
<g id="a_Node000025"><a xlink:href="group__ch9121x__base__driver.html#ga49aec55c4fc01715f06b608d8477cb73" target="_top" xlink:title="set uart timeout">
<polygon fill="white" stroke="#666666" points="289.62,-120 158.88,-120 158.88,-100 289.62,-100 289.62,-120"/>
<text xml:space="preserve" text-anchor="middle" x="224.25" y="-106.5" font-family="Helvetica,sans-Serif" font-size="10.00">ch9121x_set_uart_timeout</text>
</a>
</g>
</g>
<!-- Node1&#45;&gt;Node25 -->
<g id="edge24_Node000001_Node000025" class="edge">
<title>Node1&#45;&gt;Node25</title>
<g id="a_edge24_Node000001_Node000025"><a xlink:title=" ">
<path fill="none" stroke="#63b8ff" d="M58.26,-522.81C63.4,-465.93 91.2,-188.14 148.75,-129 149.48,-128.25 150.24,-127.52 151.02,-126.82"/>
<polygon fill="#63b8ff" stroke="#63b8ff" points="152.8,-129.85 158.94,-121.22 148.76,-124.14 152.8,-129.85"/>
</a>
</g>
</g>
<!-- Node26 -->
<g id="Node000026" class="node">
<title>Node26</title>
<g id="a_Node000026"><a xlink:href="group__ch9121x__base__driver.html#gacb2788f45d730b772ebe4edeee826341" target="_top" xlink:title="convert the tcp retry time to the register raw data">
<polygon fill="white" stroke="#666666" points="284.38,-82 164.12,-82 164.12,-50 284.38,-50 284.38,-82"/>
<text xml:space="preserve" text-anchor="start" x="172.12" y="-68.5" font-family="Helvetica,sans-Serif" font-size="10.00">ch9121x_tcp_retry_time</text>
<text xml:space="preserve" text-anchor="middle" x="224.25" y="-56.5" font-family="Helvetica,sans-Serif" font-size="10.00">_convert_to_register</text>
</a>
</g>
</g>
<!-- Node1&#45;&gt;Node26 -->
<g id="edge25_Node000001_Node000026" class="edge">
<title>Node1&#45;&gt;Node26</title>
<g id="a_edge25_Node000001_Node000026"><a xlink:title=" ">
<path fill="none" stroke="#63b8ff" d="M58.13,-522.73C62.74,-462.79 88.83,-158.57 148.75,-91 150.48,-89.05 152.36,-87.25 154.37,-85.6"/>
<polygon fill="#63b8ff" stroke="#63b8ff" points="156.28,-88.53 162.61,-80.03 152.37,-82.73 156.28,-88.53"/>
</a>
</g>
</g>
<!-- Node27 -->
<g id="Node000027" class="node">
<title>Node27</title>
<g id="a_Node000027"><a xlink:href="group__ch9121x__base__driver.html#ga80d95eac29760c6ba3247a2b924dfde7" target="_top" xlink:title="convert the uart timeout to the register raw data">
<polygon fill="white" stroke="#666666" points="280.25,-32 168.25,-32 168.25,0 280.25,0 280.25,-32"/>
<text xml:space="preserve" text-anchor="start" x="176.25" y="-18.5" font-family="Helvetica,sans-Serif" font-size="10.00">ch9121x_uart_timeout</text>
<text xml:space="preserve" text-anchor="middle" x="224.25" y="-6.5" font-family="Helvetica,sans-Serif" font-size="10.00">_convert_to_register</text>
</a>
</g>
</g>
<!-- Node1&#45;&gt;Node27 -->
<g id="edge26_Node000001_Node000027" class="edge">
<title>Node1&#45;&gt;Node27</title>
<g id="a_edge26_Node000001_Node000027"><a xlink:title=" ">
<path fill="none" stroke="#63b8ff" d="M57.89,-522.84C61.31,-459.34 82.65,-117.07 148.75,-41 151.51,-37.83 154.68,-35.06 158.13,-32.63"/>
<polygon fill="#63b8ff" stroke="#63b8ff" points="159.61,-35.82 166.49,-27.77 156.09,-29.77 159.61,-35.82"/>
</a>
</g>
</g>
</g>
</svg>
