<?xml version="1.0" encoding="UTF-8" standalone="no"?>
<!DOCTYPE svg PUBLIC "-//W3C//DTD SVG 1.1//EN"
 "http://www.w3.org/Graphics/SVG/1.1/DTD/svg11.dtd">
<!-- Generated by graphviz version 14.1.1 (20251213.1925)
 -->
<!-- Title: ch9121x_net_test Pages: 1 -->
<svg width="280pt" height="1728pt"
 viewBox="0.00 0.00 280.00 1728.00" xmlns="http://www.w3.org/2000/svg" xmlns:xlink="http://www.w3.org/1999/xlink">
<g id="graph0" class="graph" transform="scale(1 1) rotate(0) translate(4 1724)">
<title>ch9121x_net_test</title>
<!-- Node1 -->
<g id="Node000001" class="node">
<title>Node1</title>
<g id="a_Node000001"><a xlink:title="net test">
<polygon fill="#999999" stroke="#666666" points="93.25,-834 0,-834 0,-814 93.25,-814 93.25,-834"/>
<text xml:space="preserve" text-anchor="middle" x="46.62" y="-820.5" font-family="Helvetica,sans-Serif" font-size="10.00">ch9121x_net_test</text>
</a>
</g>
</g>
<!-- Node2 -->
<g id="Node000002" class="node">
<title>Node2</title>
<g id="a_Node000002"><a xlink:href="group__ch9121x__base__driver.html#ga3eae14ebf28b4b3c0c16e3b8107489c7" target="_top" xlink:title="config and reset the chip">
<polygon fill="white" stroke="#666666" points="253.25,-1720 148,-1720 148,-1688 253.25,-1688 253.25,-1720"/>
<text xml:space="preserve" text-anchor="start" x="156" y="-1706.5" font-family="Helvetica,sans-Serif" font-size="10.00">ch9121x_config_and</text>
<text xml:space="preserve" text-anchor="middle" x="200.62" y="-1694.5" font-family="Helvetica,sans-Serif" font-size="10.00">_reset</text>
</a>
</g>
</g>
<!-- Node1&#45;&gt;Node2 -->
<g id="edge1_Node000001_Node000002" class="edge">
<title>Node1&#45;&gt;Node2</title>
<g id="a_edge1_Node000001_Node000002"><a xlink:title=" ">
<path fill="none" stroke="#63b8ff" d="M47.95,-834.46C50.93,-927.31 74.58,-1608.89 129.25,-1679 131.76,-1682.22 134.71,-1685.02 137.96,-1687.46"/>
<polygon fill="#63b8ff" stroke="#63b8ff" points="136.14,-1690.45 146.51,-1692.65 139.78,-1684.47 136.14,-1690.45"/>
</a>
</g>
</g>
<!-- Node3 -->
<g id="Node000003" class="node">
<title>Node3</title>
<g id="a_Node000003"><a xlink:href="group__ch9121x__base__driver.html#gaabdc9fb7f0d776e4373acb36fbef6736" target="_top" xlink:title="close the chip">
<polygon fill="white" stroke="#666666" points="241.25,-1670 160,-1670 160,-1650 241.25,-1650 241.25,-1670"/>
<text xml:space="preserve" text-anchor="middle" x="200.62" y="-1656.5" font-family="Helvetica,sans-Serif" font-size="10.00">ch9121x_deinit</text>
</a>
</g>
</g>
<!-- Node1&#45;&gt;Node3 -->
<g id="edge2_Node000001_Node000003" class="edge">
<title>Node1&#45;&gt;Node3</title>
<g id="a_edge2_Node000001_Node000003"><a xlink:title=" ">
<path fill="none" stroke="#63b8ff" d="M47.96,-834.3C50.94,-924.39 74.34,-1576.24 129.25,-1641 134.42,-1647.1 141.33,-1651.35 148.81,-1654.28"/>
<polygon fill="#63b8ff" stroke="#63b8ff" points="147.59,-1657.57 158.18,-1657.17 149.65,-1650.88 147.59,-1657.57"/>
</a>
</g>
</g>
<!-- Node4 -->
<g id="Node000004" class="node">
<title>Node4</title>
<g id="a_Node000004"><a xlink:href="group__ch9121x__base__driver.html#ga4b39dfdcd19ffd5a74f82db58bf6eefb" target="_top" xlink:title="get dest ip">
<polygon fill="white" stroke="#666666" points="254.75,-1632 146.5,-1632 146.5,-1612 254.75,-1612 254.75,-1632"/>
<text xml:space="preserve" text-anchor="middle" x="200.62" y="-1618.5" font-family="Helvetica,sans-Serif" font-size="10.00">ch9121x_get_dest_ip</text>
</a>
</g>
</g>
<!-- Node1&#45;&gt;Node4 -->
<g id="edge3_Node000001_Node000004" class="edge">
<title>Node1&#45;&gt;Node4</title>
<g id="a_edge3_Node000001_Node000004"><a xlink:title=" ">
<path fill="none" stroke="#63b8ff" d="M48.01,-834.37C51.37,-922.34 76.83,-1541.48 129.25,-1603 131.4,-1605.53 133.86,-1607.74 136.52,-1609.67"/>
<polygon fill="#63b8ff" stroke="#63b8ff" points="134.55,-1612.57 144.98,-1614.46 138.01,-1606.48 134.55,-1612.57"/>
</a>
</g>
</g>
<!-- Node5 -->
<g id="Node000005" class="node">
<title>Node5</title>
<g id="a_Node000005"><a xlink:href="group__ch9121x__base__driver.html#ga20da74f86d25318f27f00ad7eac4165c" target="_top" xlink:title="get dest port">
<polygon fill="white" stroke="#666666" points="259.25,-1594 142,-1594 142,-1574 259.25,-1574 259.25,-1594"/>
<text xml:space="preserve" text-anchor="middle" x="200.62" y="-1580.5" font-family="Helvetica,sans-Serif" font-size="10.00">ch9121x_get_dest_port</text>
</a>
</g>
</g>
<!-- Node1&#45;&gt;Node5 -->
<g id="edge4_Node000001_Node000005" class="edge">
<title>Node1&#45;&gt;Node5</title>
<g id="a_edge4_Node000001_Node000005"><a xlink:title=" ">
<path fill="none" stroke="#63b8ff" d="M48.07,-834.4C51.83,-920.03 79.31,-1506.71 129.25,-1565 130.22,-1566.14 131.26,-1567.21 132.34,-1568.22"/>
<polygon fill="#63b8ff" stroke="#63b8ff" points="130.16,-1570.96 140.33,-1573.95 134.24,-1565.27 130.16,-1570.96"/>
</a>
</g>
</g>
<!-- Node6 -->
<g id="Node000006" class="node">
<title>Node6</title>
<g id="a_Node000006"><a xlink:href="group__ch9121x__base__driver.html#ga521c7f387cf1db0b74b4faa41d90c4c8" target="_top" xlink:title="get ip address">
<polygon fill="white" stroke="#666666" points="242.75,-1556 158.5,-1556 158.5,-1536 242.75,-1536 242.75,-1556"/>
<text xml:space="preserve" text-anchor="middle" x="200.62" y="-1542.5" font-family="Helvetica,sans-Serif" font-size="10.00">ch9121x_get_ip</text>
</a>
</g>
</g>
<!-- Node1&#45;&gt;Node6 -->
<g id="edge5_Node000001_Node000006" class="edge">
<title>Node1&#45;&gt;Node6</title>
<g id="a_edge5_Node000001_Node000006"><a xlink:title=" ">
<path fill="none" stroke="#63b8ff" d="M48.13,-834.39C52.3,-917.47 81.77,-1471.91 129.25,-1527 134.19,-1532.73 140.66,-1536.82 147.68,-1539.73"/>
<polygon fill="#63b8ff" stroke="#63b8ff" points="146.21,-1542.93 156.8,-1542.71 148.39,-1536.28 146.21,-1542.93"/>
</a>
</g>
</g>
<!-- Node7 -->
<g id="Node000007" class="node">
<title>Node7</title>
<g id="a_Node000007"><a xlink:href="group__ch9121x__base__driver.html#ga6e538b4b94adeb3c5041ddb8f0ab85c5" target="_top" xlink:title="get source port">
<polygon fill="white" stroke="#666666" points="264.5,-1518 136.75,-1518 136.75,-1498 264.5,-1498 264.5,-1518"/>
<text xml:space="preserve" text-anchor="middle" x="200.62" y="-1504.5" font-family="Helvetica,sans-Serif" font-size="10.00">ch9121x_get_source_port</text>
</a>
</g>
</g>
<!-- Node1&#45;&gt;Node7 -->
<g id="edge6_Node000001_Node000007" class="edge">
<title>Node1&#45;&gt;Node7</title>
<g id="a_edge6_Node000001_Node000007"><a xlink:title=" ">
<path fill="none" stroke="#63b8ff" d="M47.38,-834.12C45.8,-909.67 39.49,-1385.54 129.25,-1489 129.72,-1489.54 130.2,-1490.06 130.69,-1490.57"/>
<polygon fill="#63b8ff" stroke="#63b8ff" points="128.44,-1493.26 138.46,-1496.71 132.78,-1487.76 128.44,-1493.26"/>
</a>
</g>
</g>
<!-- Node8 -->
<g id="Node000008" class="node">
<title>Node8</title>
<g id="a_Node000008"><a xlink:href="group__ch9121x__base__driver.html#ga8d797127aefb70f9545ed17ac02d4857" target="_top" xlink:title="get chip&#39;s information">
<polygon fill="white" stroke="#666666" points="237.5,-1480 163.75,-1480 163.75,-1460 237.5,-1460 237.5,-1480"/>
<text xml:space="preserve" text-anchor="middle" x="200.62" y="-1466.5" font-family="Helvetica,sans-Serif" font-size="10.00">ch9121x_info</text>
</a>
</g>
</g>
<!-- Node1&#45;&gt;Node8 -->
<g id="edge7_Node000001_Node000008" class="edge">
<title>Node1&#45;&gt;Node8</title>
<g id="a_edge7_Node000001_Node000008"><a xlink:title=" ">
<path fill="none" stroke="#63b8ff" d="M47.46,-834.47C46.53,-908.62 44.55,-1354.09 129.25,-1451 135.35,-1457.98 143.72,-1462.52 152.56,-1465.44"/>
<polygon fill="#63b8ff" stroke="#63b8ff" points="151.43,-1468.77 161.99,-1467.89 153.19,-1461.99 151.43,-1468.77"/>
</a>
</g>
</g>
<!-- Node9 -->
<g id="Node000009" class="node">
<title>Node9</title>
<g id="a_Node000009"><a xlink:href="group__ch9121x__base__driver.html#gaf5fc2d2cbb72a33ee845608375385385" target="_top" xlink:title="initialize the chip">
<polygon fill="white" stroke="#666666" points="236,-1442 165.25,-1442 165.25,-1422 236,-1422 236,-1442"/>
<text xml:space="preserve" text-anchor="middle" x="200.62" y="-1428.5" font-family="Helvetica,sans-Serif" font-size="10.00">ch9121x_init</text>
</a>
</g>
</g>
<!-- Node1&#45;&gt;Node9 -->
<g id="edge8_Node000001_Node000009" class="edge">
<title>Node1&#45;&gt;Node9</title>
<g id="a_edge8_Node000001_Node000009"><a xlink:title=" ">
<path fill="none" stroke="#63b8ff" d="M47.56,-834.29C47.33,-905.31 49.39,-1322.39 129.25,-1413 135.69,-1420.3 144.61,-1424.93 153.94,-1427.83"/>
<polygon fill="#63b8ff" stroke="#63b8ff" points="152.94,-1431.19 163.48,-1430.15 154.59,-1424.39 152.94,-1431.19"/>
</a>
</g>
</g>
<!-- Node10 -->
<g id="Node000010" class="node">
<title>Node10</title>
<g id="a_Node000010"><a xlink:href="group__ch9121x__interface__driver.html#ga05d375b8b091d4e5666aabd8c155ad37" target="_top" xlink:title="interface cfg gpio deinit">
<polygon fill="white" stroke="#666666" points="257.75,-1404 143.5,-1404 143.5,-1372 257.75,-1372 257.75,-1404"/>
<text xml:space="preserve" text-anchor="start" x="151.5" y="-1390.5" font-family="Helvetica,sans-Serif" font-size="10.00">ch9121x_interface_cfg</text>
<text xml:space="preserve" text-anchor="middle" x="200.62" y="-1378.5" font-family="Helvetica,sans-Serif" font-size="10.00">_gpio_deinit</text>
</a>
</g>
</g>
<!-- Node1&#45;&gt;Node10 -->
<g id="edge9_Node000001_Node000010" class="edge">
<title>Node1&#45;&gt;Node10</title>
<g id="a_edge9_Node000001_Node000010"><a xlink:title=" ">
<path fill="none" stroke="#63b8ff" d="M47.78,-834.21C49.02,-901.22 59.08,-1277.95 129.25,-1363 130.7,-1364.76 132.29,-1366.4 133.99,-1367.92"/>
<polygon fill="#63b8ff" stroke="#63b8ff" points="131.87,-1370.71 142.02,-1373.73 135.97,-1365.04 131.87,-1370.71"/>
</a>
</g>
</g>
<!-- Node11 -->
<g id="Node000011" class="node">
<title>Node11</title>
<g id="a_Node000011"><a xlink:href="group__ch9121x__interface__driver.html#ga20ca254f1753f0491e756bdd935a66b1" target="_top" xlink:title="interface cfg gpio init">
<polygon fill="white" stroke="#666666" points="257.75,-1354 143.5,-1354 143.5,-1322 257.75,-1322 257.75,-1354"/>
<text xml:space="preserve" text-anchor="start" x="151.5" y="-1340.5" font-family="Helvetica,sans-Serif" font-size="10.00">ch9121x_interface_cfg</text>
<text xml:space="preserve" text-anchor="middle" x="200.62" y="-1328.5" font-family="Helvetica,sans-Serif" font-size="10.00">_gpio_init</text>
</a>
</g>
</g>
<!-- Node1&#45;&gt;Node11 -->
<g id="edge10_Node000001_Node000011" class="edge">
<title>Node1&#45;&gt;Node11</title>
<g id="a_edge10_Node000001_Node000011"><a xlink:title=" ">
<path fill="none" stroke="#63b8ff" d="M47.97,-834.48C50.25,-898.5 65.26,-1236.64 129.25,-1313 130.72,-1314.75 132.32,-1316.38 134.02,-1317.9"/>
<polygon fill="#63b8ff" stroke="#63b8ff" points="131.92,-1320.7 142.09,-1323.68 136,-1315.01 131.92,-1320.7"/>
</a>
</g>
</g>
<!-- Node12 -->
<g id="Node000012" class="node">
<title>Node12</title>
<g id="a_Node000012"><a xlink:href="group__ch9121x__interface__driver.html#gaafc642da5cb630766bfbc4037827d33f" target="_top" xlink:title="interface cfg gpio write">
<polygon fill="white" stroke="#666666" points="257.75,-1304 143.5,-1304 143.5,-1272 257.75,-1272 257.75,-1304"/>
<text xml:space="preserve" text-anchor="start" x="151.5" y="-1290.5" font-family="Helvetica,sans-Serif" font-size="10.00">ch9121x_interface_cfg</text>
<text xml:space="preserve" text-anchor="middle" x="200.62" y="-1278.5" font-family="Helvetica,sans-Serif" font-size="10.00">_gpio_write</text>
</a>
</g>
</g>
<!-- Node1&#45;&gt;Node12 -->
<g id="edge11_Node000001_Node000012" class="edge">
<title>Node1&#45;&gt;Node12</title>
<g id="a_edge11_Node000001_Node000012"><a xlink:title=" ">
<path fill="none" stroke="#63b8ff" d="M48.17,-834.18C51.52,-893.56 71.24,-1195.05 129.25,-1263 130.7,-1264.7 132.28,-1266.29 133.95,-1267.76"/>
<polygon fill="#63b8ff" stroke="#63b8ff" points="131.67,-1270.43 141.84,-1273.41 135.74,-1264.74 131.67,-1270.43"/>
</a>
</g>
</g>
<!-- Node13 -->
<g id="Node000013" class="node">
<title>Node13</title>
<g id="a_Node000013"><a xlink:href="group__ch9121x__interface__driver.html#ga3341e88131cc4c082b248822d0fd4c39" target="_top" xlink:title="interface print format data">
<polygon fill="white" stroke="#666666" points="264.12,-1254 137.12,-1254 137.12,-1222 264.12,-1222 264.12,-1254"/>
<text xml:space="preserve" text-anchor="start" x="145.12" y="-1240.5" font-family="Helvetica,sans-Serif" font-size="10.00">ch9121x_interface_debug</text>
<text xml:space="preserve" text-anchor="middle" x="200.62" y="-1228.5" font-family="Helvetica,sans-Serif" font-size="10.00">_print</text>
</a>
</g>
</g>
<!-- Node1&#45;&gt;Node13 -->
<g id="edge12_Node000001_Node000013" class="edge">
<title>Node1&#45;&gt;Node13</title>
<g id="a_edge12_Node000001_Node000013"><a xlink:title=" ">
<path fill="none" stroke="#63b8ff" d="M48.45,-834.45C53.07,-890.33 77.37,-1153.63 129.25,-1213 129.7,-1213.52 130.17,-1214.03 130.64,-1214.52"/>
<polygon fill="#63b8ff" stroke="#63b8ff" points="128.12,-1216.97 138.03,-1220.72 132.62,-1211.61 128.12,-1216.97"/>
</a>
</g>
</g>
<!-- Node14 -->
<g id="Node000014" class="node">
<title>Node14</title>
<g id="a_Node000014"><a xlink:href="group__ch9121x__interface__driver.html#gaae20e683a9b225ea4b9760c80084f1ae" target="_top" xlink:title="interface delay ms">
<polygon fill="white" stroke="#666666" points="272,-1204 129.25,-1204 129.25,-1184 272,-1184 272,-1204"/>
<text xml:space="preserve" text-anchor="middle" x="200.62" y="-1190.5" font-family="Helvetica,sans-Serif" font-size="10.00">ch9121x_interface_delay_ms</text>
</a>
</g>
</g>
<!-- Node1&#45;&gt;Node14 -->
<g id="edge13_Node000001_Node000014" class="edge">
<title>Node1&#45;&gt;Node14</title>
<g id="a_edge13_Node000001_Node000014"><a xlink:title=" ">
<path fill="none" stroke="#63b8ff" d="M48.6,-834.18C53.78,-886.4 79.82,-1123.8 129.25,-1175 129.98,-1175.76 130.74,-1176.48 131.52,-1177.18"/>
<polygon fill="#63b8ff" stroke="#63b8ff" points="129.28,-1179.89 139.47,-1182.79 133.31,-1174.17 129.28,-1179.89"/>
</a>
</g>
</g>
<!-- Node15 -->
<g id="Node000015" class="node">
<title>Node15</title>
<g id="a_Node000015"><a xlink:href="group__ch9121x__interface__driver.html#ga7ceb94814658c9adfb3a2f100a6d6b1a" target="_top" xlink:title="interface reset gpio deinit">
<polygon fill="white" stroke="#666666" points="261.88,-1166 139.38,-1166 139.38,-1134 261.88,-1134 261.88,-1166"/>
<text xml:space="preserve" text-anchor="start" x="147.38" y="-1152.5" font-family="Helvetica,sans-Serif" font-size="10.00">ch9121x_interface_reset</text>
<text xml:space="preserve" text-anchor="middle" x="200.62" y="-1140.5" font-family="Helvetica,sans-Serif" font-size="10.00">_gpio_deinit</text>
</a>
</g>
</g>
<!-- Node1&#45;&gt;Node15 -->
<g id="edge14_Node000001_Node000015" class="edge">
<title>Node1&#45;&gt;Node15</title>
<g id="a_edge14_Node000001_Node000015"><a xlink:title=" ">
<path fill="none" stroke="#63b8ff" d="M47.23,-834.42C46.18,-876.67 47.94,-1037.21 129.25,-1125 129.72,-1125.51 130.2,-1126 130.69,-1126.49"/>
<polygon fill="#63b8ff" stroke="#63b8ff" points="128.24,-1129.01 138.22,-1132.55 132.63,-1123.56 128.24,-1129.01"/>
</a>
</g>
</g>
<!-- Node16 -->
<g id="Node000016" class="node">
<title>Node16</title>
<g id="a_Node000016"><a xlink:href="group__ch9121x__interface__driver.html#gaf4ac07c22fd6066e673294ada415acb6" target="_top" xlink:title="interface reset gpio init">
<polygon fill="white" stroke="#666666" points="261.88,-1116 139.38,-1116 139.38,-1084 261.88,-1084 261.88,-1116"/>
<text xml:space="preserve" text-anchor="start" x="147.38" y="-1102.5" font-family="Helvetica,sans-Serif" font-size="10.00">ch9121x_interface_reset</text>
<text xml:space="preserve" text-anchor="middle" x="200.62" y="-1090.5" font-family="Helvetica,sans-Serif" font-size="10.00">_gpio_init</text>
</a>
</g>
</g>
<!-- Node1&#45;&gt;Node16 -->
<g id="edge15_Node000001_Node000016" class="edge">
<title>Node1&#45;&gt;Node16</title>
<g id="a_edge15_Node000001_Node000016"><a xlink:title=" ">
<path fill="none" stroke="#63b8ff" d="M47.89,-834.48C49.42,-872.34 59.73,-1003.58 129.25,-1075 129.84,-1075.61 130.45,-1076.2 131.08,-1076.79"/>
<polygon fill="#63b8ff" stroke="#63b8ff" points="128.64,-1079.33 138.71,-1082.62 132.9,-1073.77 128.64,-1079.33"/>
</a>
</g>
</g>
<!-- Node17 -->
<g id="Node000017" class="node">
<title>Node17</title>
<g id="a_Node000017"><a xlink:href="group__ch9121x__interface__driver.html#ga912292ac47c07c529cdfad03b89f97f6" target="_top" xlink:title="interface reset gpio write">
<polygon fill="white" stroke="#666666" points="261.88,-1066 139.38,-1066 139.38,-1034 261.88,-1034 261.88,-1066"/>
<text xml:space="preserve" text-anchor="start" x="147.38" y="-1052.5" font-family="Helvetica,sans-Serif" font-size="10.00">ch9121x_interface_reset</text>
<text xml:space="preserve" text-anchor="middle" x="200.62" y="-1040.5" font-family="Helvetica,sans-Serif" font-size="10.00">_gpio_write</text>
</a>
</g>
</g>
<!-- Node1&#45;&gt;Node17 -->
<g id="edge16_Node000001_Node000017" class="edge">
<title>Node1&#45;&gt;Node17</title>
<g id="a_edge16_Node000001_Node000017"><a xlink:title=" ">
<path fill="none" stroke="#63b8ff" d="M48.85,-834.41C53.27,-867.22 71.28,-969.55 129.25,-1025 130.01,-1025.73 130.79,-1026.43 131.59,-1027.11"/>
<polygon fill="#63b8ff" stroke="#63b8ff" points="129.44,-1029.88 139.61,-1032.82 133.49,-1024.17 129.44,-1029.88"/>
</a>
</g>
</g>
<!-- Node18 -->
<g id="Node000018" class="node">
<title>Node18</title>
<g id="a_Node000018"><a xlink:href="group__ch9121x__interface__driver.html#gae5acda4aa838a825437cd9aec8c63abb" target="_top" xlink:title="interface uart deinit">
<polygon fill="white" stroke="#666666" points="259.25,-1016 142,-1016 142,-984 259.25,-984 259.25,-1016"/>
<text xml:space="preserve" text-anchor="start" x="150" y="-1002.5" font-family="Helvetica,sans-Serif" font-size="10.00">ch9121x_interface_uart</text>
<text xml:space="preserve" text-anchor="middle" x="200.62" y="-990.5" font-family="Helvetica,sans-Serif" font-size="10.00">_deinit</text>
</a>
</g>
</g>
<!-- Node1&#45;&gt;Node18 -->
<g id="edge17_Node000001_Node000018" class="edge">
<title>Node1&#45;&gt;Node18</title>
<g id="a_edge17_Node000001_Node000018"><a xlink:title=" ">
<path fill="none" stroke="#63b8ff" d="M50.41,-834.46C58.18,-861.62 82.63,-935.06 129.25,-975 130.33,-975.93 131.45,-976.82 132.6,-977.68"/>
<polygon fill="#63b8ff" stroke="#63b8ff" points="130.35,-980.39 140.66,-982.84 134.12,-974.5 130.35,-980.39"/>
</a>
</g>
</g>
<!-- Node19 -->
<g id="Node000019" class="node">
<title>Node19</title>
<g id="a_Node000019"><a xlink:href="group__ch9121x__interface__driver.html#ga59ea386b1bcccfe624f4e5bc52f8ed45" target="_top" xlink:title="interface uart flush">
<polygon fill="white" stroke="#666666" points="259.25,-966 142,-966 142,-934 259.25,-934 259.25,-966"/>
<text xml:space="preserve" text-anchor="start" x="150" y="-952.5" font-family="Helvetica,sans-Serif" font-size="10.00">ch9121x_interface_uart</text>
<text xml:space="preserve" text-anchor="middle" x="200.62" y="-940.5" font-family="Helvetica,sans-Serif" font-size="10.00">_flush</text>
</a>
</g>
</g>
<!-- Node1&#45;&gt;Node19 -->
<g id="edge18_Node000001_Node000019" class="edge">
<title>Node1&#45;&gt;Node19</title>
<g id="a_edge18_Node000001_Node000019"><a xlink:title=" ">
<path fill="none" stroke="#63b8ff" d="M53.39,-834.45C65.09,-854.75 93.56,-899.72 129.25,-925 130.81,-926.11 132.43,-927.17 134.09,-928.19"/>
<polygon fill="#63b8ff" stroke="#63b8ff" points="132.2,-931.15 142.66,-932.85 135.55,-925 132.2,-931.15"/>
</a>
</g>
</g>
<!-- Node20 -->
<g id="Node000020" class="node">
<title>Node20</title>
<g id="a_Node000020"><a xlink:href="group__ch9121x__interface__driver.html#gaf82a4eb2a3ffd0b276c21551dc79fca3" target="_top" xlink:title="interface uart init">
<polygon fill="white" stroke="#666666" points="268.25,-916 133,-916 133,-896 268.25,-896 268.25,-916"/>
<text xml:space="preserve" text-anchor="middle" x="200.62" y="-902.5" font-family="Helvetica,sans-Serif" font-size="10.00">ch9121x_interface_uart_init</text>
</a>
</g>
</g>
<!-- Node1&#45;&gt;Node20 -->
<g id="edge19_Node000001_Node000020" class="edge">
<title>Node1&#45;&gt;Node20</title>
<g id="a_edge19_Node000001_Node000020"><a xlink:title=" ">
<path fill="none" stroke="#63b8ff" d="M57.79,-834.04C72.39,-847.91 100.71,-872.84 129.25,-887 132.76,-888.74 136.44,-890.34 140.22,-891.8"/>
<polygon fill="#63b8ff" stroke="#63b8ff" points="138.97,-895.07 149.57,-895.08 141.29,-888.47 138.97,-895.07"/>
</a>
</g>
</g>
<!-- Node21 -->
<g id="Node000021" class="node">
<title>Node21</title>
<g id="a_Node000021"><a xlink:href="group__ch9121x__interface__driver.html#ga779cc85b6a5004c8c6b0dac58e21de2b" target="_top" xlink:title="interface uart read">
<polygon fill="white" stroke="#666666" points="271.25,-878 130,-878 130,-858 271.25,-858 271.25,-878"/>
<text xml:space="preserve" text-anchor="middle" x="200.62" y="-864.5" font-family="Helvetica,sans-Serif" font-size="10.00">ch9121x_interface_uart_read</text>
</a>
</g>
</g>
<!-- Node1&#45;&gt;Node21 -->
<g id="edge20_Node000001_Node000021" class="edge">
<title>Node1&#45;&gt;Node21</title>
<g id="a_edge20_Node000001_Node000021"><a xlink:title=" ">
<path fill="none" stroke="#63b8ff" d="M80.91,-834.47C95.68,-839.05 113.3,-844.41 129.25,-849 135.64,-850.84 142.37,-852.73 149.03,-854.56"/>
<polygon fill="#63b8ff" stroke="#63b8ff" points="148.08,-857.93 158.65,-857.18 149.92,-851.17 148.08,-857.93"/>
</a>
</g>
</g>
<!-- Node22 -->
<g id="Node000022" class="node">
<title>Node22</title>
<g id="a_Node000022"><a xlink:href="group__ch9121x__interface__driver.html#ga551f461ec6115efa9a172ebe3b6a9b23" target="_top" xlink:title="interface uart write">
<polygon fill="white" stroke="#666666" points="259.25,-840 142,-840 142,-808 259.25,-808 259.25,-840"/>
<text xml:space="preserve" text-anchor="start" x="150" y="-826.5" font-family="Helvetica,sans-Serif" font-size="10.00">ch9121x_interface_uart</text>
<text xml:space="preserve" text-anchor="middle" x="200.62" y="-814.5" font-family="Helvetica,sans-Serif" font-size="10.00">_write</text>
</a>
</g>
</g>
<!-- Node1&#45;&gt;Node22 -->
<g id="edge21_Node000001_Node000022" class="edge">
<title>Node1&#45;&gt;Node22</title>
<g id="a_edge21_Node000001_Node000022"><a xlink:title=" ">
<path fill="none" stroke="#63b8ff" d="M93.64,-824C105.22,-824 117.89,-824 130.33,-824"/>
<polygon fill="#63b8ff" stroke="#63b8ff" points="130.13,-827.5 140.13,-824 130.13,-820.5 130.13,-827.5"/>
</a>
</g>
</g>
<!-- Node23 -->
<g id="Node000023" class="node">
<title>Node23</title>
<g id="a_Node000023"><a xlink:href="group__ch9121x__base__driver.html#ga140cdff2b5dd7b9eef048fda5f4c3af4" target="_top" xlink:title="read data">
<polygon fill="white" stroke="#666666" points="239,-790 162.25,-790 162.25,-770 239,-770 239,-790"/>
<text xml:space="preserve" text-anchor="middle" x="200.62" y="-776.5" font-family="Helvetica,sans-Serif" font-size="10.00">ch9121x_read</text>
</a>
</g>
</g>
<!-- Node1&#45;&gt;Node23 -->
<g id="edge22_Node000001_Node000023" class="edge">
<title>Node1&#45;&gt;Node23</title>
<g id="a_edge22_Node000001_Node000023"><a xlink:title=" ">
<path fill="none" stroke="#63b8ff" d="M80.91,-813.53C95.68,-808.95 113.3,-803.59 129.25,-799 136.28,-796.98 143.71,-794.9 151.02,-792.89"/>
<polygon fill="#63b8ff" stroke="#63b8ff" points="151.75,-796.32 160.48,-790.32 149.91,-789.57 151.75,-796.32"/>
</a>
</g>
</g>
<!-- Node24 -->
<g id="Node000024" class="node">
<title>Node24</title>
<g id="a_Node000024"><a xlink:href="group__ch9121x__base__driver.html#gaf28c5d7783aa54a229a80581f3959db1" target="_top" xlink:title="save to eeprom">
<polygon fill="white" stroke="#666666" points="265.62,-752 135.62,-752 135.62,-732 265.62,-732 265.62,-752"/>
<text xml:space="preserve" text-anchor="middle" x="200.62" y="-738.5" font-family="Helvetica,sans-Serif" font-size="10.00">ch9121x_save_to_eeprom</text>
</a>
</g>
</g>
<!-- Node1&#45;&gt;Node24 -->
<g id="edge23_Node000001_Node000024" class="edge">
<title>Node1&#45;&gt;Node24</title>
<g id="a_edge23_Node000001_Node000024"><a xlink:title=" ">
<path fill="none" stroke="#63b8ff" d="M57.79,-813.96C72.39,-800.09 100.71,-775.16 129.25,-761 132.76,-759.26 136.44,-757.66 140.22,-756.2"/>
<polygon fill="#63b8ff" stroke="#63b8ff" points="141.29,-759.53 149.57,-752.92 138.97,-752.93 141.29,-759.53"/>
</a>
</g>
</g>
<!-- Node25 -->
<g id="Node000025" class="node">
<title>Node25</title>
<g id="a_Node000025"><a xlink:href="group__ch9121x__base__driver.html#ga15f22ee564463cb3a83efca834653ba5" target="_top" xlink:title="set dest ip">
<polygon fill="white" stroke="#666666" points="254.75,-714 146.5,-714 146.5,-694 254.75,-694 254.75,-714"/>
<text xml:space="preserve" text-anchor="middle" x="200.62" y="-700.5" font-family="Helvetica,sans-Serif" font-size="10.00">ch9121x_set_dest_ip</text>
</a>
</g>
</g>
<!-- Node1&#45;&gt;Node25 -->
<g id="edge24_Node000001_Node000025" class="edge">
<title>Node1&#45;&gt;Node25</title>
<g id="a_edge24_Node000001_Node000025"><a xlink:title=" ">
<path fill="none" stroke="#63b8ff" d="M53.05,-813.62C64.34,-793.04 92.41,-747 129.25,-723 131.49,-721.54 133.83,-720.2 136.25,-718.95"/>
<polygon fill="#63b8ff" stroke="#63b8ff" points="137.44,-722.26 145.17,-715.01 134.61,-715.85 137.44,-722.26"/>
</a>
</g>
</g>
<!-- Node26 -->
<g id="Node000026" class="node">
<title>Node26</title>
<g id="a_Node000026"><a xlink:href="group__ch9121x__base__driver.html#ga0ccdc7b126ebb5eeb7cad5e69990916b" target="_top" xlink:title="set dest port">
<polygon fill="white" stroke="#666666" points="259.25,-676 142,-676 142,-656 259.25,-656 259.25,-676"/>
<text xml:space="preserve" text-anchor="middle" x="200.62" y="-662.5" font-family="Helvetica,sans-Serif" font-size="10.00">ch9121x_set_dest_port</text>
</a>
</g>
</g>
<!-- Node1&#45;&gt;Node26 -->
<g id="edge25_Node000001_Node000026" class="edge">
<title>Node1&#45;&gt;Node26</title>
<g id="a_edge25_Node000001_Node000026"><a xlink:title=" ">
<path fill="none" stroke="#63b8ff" d="M50.62,-813.79C58.74,-788 83.64,-719.8 129.25,-685 130.81,-683.81 132.43,-682.7 134.11,-681.66"/>
<polygon fill="#63b8ff" stroke="#63b8ff" points="135.63,-684.81 142.89,-677.1 132.4,-678.6 135.63,-684.81"/>
</a>
</g>
</g>
<!-- Node27 -->
<g id="Node000027" class="node">
<title>Node27</title>
<g id="a_Node000027"><a xlink:href="group__ch9121x__base__driver.html#gaacd14c29adebcc22f1bfcdd2b102a786" target="_top" xlink:title="enable or disable dhcp">
<polygon fill="white" stroke="#666666" points="249.5,-638 151.75,-638 151.75,-618 249.5,-618 249.5,-638"/>
<text xml:space="preserve" text-anchor="middle" x="200.62" y="-624.5" font-family="Helvetica,sans-Serif" font-size="10.00">ch9121x_set_dhcp</text>
</a>
</g>
</g>
<!-- Node1&#45;&gt;Node27 -->
<g id="edge26_Node000001_Node000027" class="edge">
<title>Node1&#45;&gt;Node27</title>
<g id="a_edge26_Node000001_Node000027"><a xlink:title=" ">
<path fill="none" stroke="#63b8ff" d="M49.25,-813.79C54.62,-783.44 74.69,-693.06 129.25,-647 132.84,-643.97 136.87,-641.42 141.13,-639.27"/>
<polygon fill="#63b8ff" stroke="#63b8ff" points="142.15,-642.64 150.02,-635.54 139.45,-636.18 142.15,-642.64"/>
</a>
</g>
</g>
<!-- Node28 -->
<g id="Node000028" class="node">
<title>Node28</title>
<g id="a_Node000028"><a xlink:href="group__ch9121x__base__driver.html#gabfb253a5ce2539ed7caa68b2cab3d38a" target="_top" xlink:title="enable or disable disconnect with no rj45">
<polygon fill="white" stroke="#666666" points="262.62,-600 138.62,-600 138.62,-568 262.62,-568 262.62,-600"/>
<text xml:space="preserve" text-anchor="start" x="146.62" y="-586.5" font-family="Helvetica,sans-Serif" font-size="10.00">ch9121x_set_disconnect</text>
<text xml:space="preserve" text-anchor="middle" x="200.62" y="-574.5" font-family="Helvetica,sans-Serif" font-size="10.00">_with_no_rj45</text>
</a>
</g>
</g>
<!-- Node1&#45;&gt;Node28 -->
<g id="edge27_Node000001_Node000028" class="edge">
<title>Node1&#45;&gt;Node28</title>
<g id="a_edge27_Node000001_Node000028"><a xlink:title=" ">
<path fill="none" stroke="#63b8ff" d="M48.51,-813.84C52.03,-779.88 67.9,-669.04 129.25,-609 129.88,-608.39 130.52,-607.79 131.17,-607.21"/>
<polygon fill="#63b8ff" stroke="#63b8ff" points="133.21,-610.05 139.2,-601.32 129.07,-604.41 133.21,-610.05"/>
</a>
</g>
</g>
<!-- Node29 -->
<g id="Node000029" class="node">
<title>Node29</title>
<g id="a_Node000029"><a xlink:href="group__ch9121x__base__driver.html#gad554e584ed287c25d2edf1211d50346a" target="_top" xlink:title="set gateway">
<polygon fill="white" stroke="#666666" points="257.38,-550 143.88,-550 143.88,-530 257.38,-530 257.38,-550"/>
<text xml:space="preserve" text-anchor="middle" x="200.62" y="-536.5" font-family="Helvetica,sans-Serif" font-size="10.00">ch9121x_set_gateway</text>
</a>
</g>
</g>
<!-- Node1&#45;&gt;Node29 -->
<g id="edge28_Node000001_Node000029" class="edge">
<title>Node1&#45;&gt;Node29</title>
<g id="a_edge28_Node000001_Node000029"><a xlink:title=" ">
<path fill="none" stroke="#63b8ff" d="M47.49,-813.58C47.59,-774.1 53.41,-632.23 129.25,-559 130.69,-557.61 132.22,-556.32 133.82,-555.12"/>
<polygon fill="#63b8ff" stroke="#63b8ff" points="135.62,-558.13 142.41,-549.99 132.03,-552.12 135.62,-558.13"/>
</a>
</g>
</g>
<!-- Node30 -->
<g id="Node000030" class="node">
<title>Node30</title>
<g id="a_Node000030"><a xlink:href="group__ch9121x__base__driver.html#gac49d370c8c0489ec8161c3eaaf1efcbc" target="_top" xlink:title="set ip address">
<polygon fill="white" stroke="#666666" points="242.75,-512 158.5,-512 158.5,-492 242.75,-492 242.75,-512"/>
<text xml:space="preserve" text-anchor="middle" x="200.62" y="-498.5" font-family="Helvetica,sans-Serif" font-size="10.00">ch9121x_set_ip</text>
</a>
</g>
</g>
<!-- Node1&#45;&gt;Node30 -->
<g id="edge29_Node000001_Node000030" class="edge">
<title>Node1&#45;&gt;Node30</title>
<g id="a_edge29_Node000001_Node000030"><a xlink:title=" ">
<path fill="none" stroke="#63b8ff" d="M49.02,-813.65C55.7,-765.56 85.92,-564.35 129.25,-521 134.36,-515.89 140.69,-512.11 147.44,-509.33"/>
<polygon fill="#63b8ff" stroke="#63b8ff" points="148.46,-512.68 156.85,-506.2 146.26,-506.04 148.46,-512.68"/>
</a>
</g>
</g>
<!-- Node31 -->
<g id="Node000031" class="node">
<title>Node31</title>
<g id="a_Node000031"><a xlink:href="group__ch9121x__base__driver.html#ga712df49d28696a13598176dfe1eca873" target="_top" xlink:title="set mode">
<polygon fill="white" stroke="#666666" points="251,-474 150.25,-474 150.25,-454 251,-454 251,-474"/>
<text xml:space="preserve" text-anchor="middle" x="200.62" y="-460.5" font-family="Helvetica,sans-Serif" font-size="10.00">ch9121x_set_mode</text>
</a>
</g>
</g>
<!-- Node1&#45;&gt;Node31 -->
<g id="edge30_Node000001_Node000031" class="edge">
<title>Node1&#45;&gt;Node31</title>
<g id="a_edge30_Node000001_Node000031"><a xlink:title=" ">
<path fill="none" stroke="#63b8ff" d="M48.68,-813.77C54.16,-762.34 81.1,-532.55 129.25,-483 132.25,-479.91 135.69,-477.31 139.41,-475.12"/>
<polygon fill="#63b8ff" stroke="#63b8ff" points="140.85,-478.31 148.4,-470.88 137.87,-471.98 140.85,-478.31"/>
</a>
</g>
</g>
<!-- Node32 -->
<g id="Node000032" class="node">
<title>Node32</title>
<g id="a_Node000032"><a xlink:href="group__ch9121x__base__driver.html#ga87dc10f0275124cbc70ad22a1c8faa03" target="_top" xlink:title="enable or disable uart port2">
<polygon fill="white" stroke="#666666" points="249.88,-436 151.38,-436 151.38,-416 249.88,-416 249.88,-436"/>
<text xml:space="preserve" text-anchor="middle" x="200.62" y="-422.5" font-family="Helvetica,sans-Serif" font-size="10.00">ch9121x_set_port2</text>
</a>
</g>
</g>
<!-- Node1&#45;&gt;Node32 -->
<g id="edge31_Node000001_Node000032" class="edge">
<title>Node1&#45;&gt;Node32</title>
<g id="a_edge31_Node000001_Node000032"><a xlink:title=" ">
<path fill="none" stroke="#63b8ff" d="M48.42,-813.75C52.84,-758.93 76.29,-500.76 129.25,-445 132.58,-441.49 136.49,-438.6 140.73,-436.24"/>
<polygon fill="#63b8ff" stroke="#63b8ff" points="142.02,-439.49 149.72,-432.21 139.16,-433.1 142.02,-439.49"/>
</a>
</g>
</g>
<!-- Node33 -->
<g id="Node000033" class="node">
<title>Node33</title>
<g id="a_Node000033"><a xlink:href="group__ch9121x__base__driver.html#ga9955b0c0ce86a79fee1a434131775e40" target="_top" xlink:title="set source port">
<polygon fill="white" stroke="#666666" points="264.5,-398 136.75,-398 136.75,-378 264.5,-378 264.5,-398"/>
<text xml:space="preserve" text-anchor="middle" x="200.62" y="-384.5" font-family="Helvetica,sans-Serif" font-size="10.00">ch9121x_set_source_port</text>
</a>
</g>
</g>
<!-- Node1&#45;&gt;Node33 -->
<g id="edge32_Node000001_Node000033" class="edge">
<title>Node1&#45;&gt;Node33</title>
<g id="a_edge32_Node000001_Node000033"><a xlink:title=" ">
<path fill="none" stroke="#63b8ff" d="M48.21,-813.51C51.7,-754.96 71.54,-468.93 129.25,-407 129.85,-406.36 130.47,-405.74 131.1,-405.14"/>
<polygon fill="#63b8ff" stroke="#63b8ff" points="133.05,-408.05 139.03,-399.3 128.9,-402.41 133.05,-408.05"/>
</a>
</g>
</g>
<!-- Node34 -->
<g id="Node000034" class="node">
<title>Node34</title>
<g id="a_Node000034"><a xlink:href="group__ch9121x__base__driver.html#gaf930d360e6478f3ec257f3ed50571658" target="_top" xlink:title="enable or disable random source port number">
<polygon fill="white" stroke="#666666" points="253.62,-360 147.62,-360 147.62,-328 253.62,-328 253.62,-360"/>
<text xml:space="preserve" text-anchor="start" x="155.62" y="-346.5" font-family="Helvetica,sans-Serif" font-size="10.00">ch9121x_set_source</text>
<text xml:space="preserve" text-anchor="middle" x="200.62" y="-334.5" font-family="Helvetica,sans-Serif" font-size="10.00">_port_random</text>
</a>
</g>
</g>
<!-- Node1&#45;&gt;Node34 -->
<g id="edge33_Node000001_Node000034" class="edge">
<title>Node1&#45;&gt;Node34</title>
<g id="a_edge33_Node000001_Node000034"><a xlink:title=" ">
<path fill="none" stroke="#63b8ff" d="M48.09,-813.85C51.08,-753.28 69.29,-439.69 129.25,-369 131.68,-366.13 134.47,-363.59 137.49,-361.35"/>
<polygon fill="#63b8ff" stroke="#63b8ff" points="139.17,-364.42 145.89,-356.23 135.53,-358.44 139.17,-364.42"/>
</a>
</g>
</g>
<!-- Node35 -->
<g id="Node000035" class="node">
<title>Node35</title>
<g id="a_Node000035"><a xlink:href="group__ch9121x__base__driver.html#ga7265767fe107373f1b724f2aec7c2e34" target="_top" xlink:title="set subnet mask">
<polygon fill="white" stroke="#666666" points="268.25,-310 133,-310 133,-290 268.25,-290 268.25,-310"/>
<text xml:space="preserve" text-anchor="middle" x="200.62" y="-296.5" font-family="Helvetica,sans-Serif" font-size="10.00">ch9121x_set_subnet_mask</text>
</a>
</g>
</g>
<!-- Node1&#45;&gt;Node35 -->
<g id="edge34_Node000001_Node000035" class="edge">
<title>Node1&#45;&gt;Node35</title>
<g id="a_edge34_Node000001_Node000035"><a xlink:title=" ">
<path fill="none" stroke="#63b8ff" d="M47.82,-813.53C49.28,-748.1 60.27,-395.52 129.25,-319 129.73,-318.47 130.22,-317.96 130.72,-317.46"/>
<polygon fill="#63b8ff" stroke="#63b8ff" points="132.8,-320.27 138.59,-311.4 128.53,-314.72 132.8,-320.27"/>
</a>
</g>
</g>
<!-- Node36 -->
<g id="Node000036" class="node">
<title>Node36</title>
<g id="a_Node000036"><a xlink:href="group__ch9121x__base__driver.html#ga12911254e0b498e61da87bb24a339d46" target="_top" xlink:title="set uart baud">
<polygon fill="white" stroke="#666666" points="260.38,-272 140.88,-272 140.88,-252 260.38,-252 260.38,-272"/>
<text xml:space="preserve" text-anchor="middle" x="200.62" y="-258.5" font-family="Helvetica,sans-Serif" font-size="10.00">ch9121x_set_uart_baud</text>
</a>
</g>
</g>
<!-- Node1&#45;&gt;Node36 -->
<g id="edge35_Node000001_Node000036" class="edge">
<title>Node1&#45;&gt;Node36</title>
<g id="a_edge35_Node000001_Node000036"><a xlink:title=" ">
<path fill="none" stroke="#63b8ff" d="M47.69,-813.65C48.35,-745.71 55.34,-363.9 129.25,-281 129.95,-280.21 130.68,-279.46 131.43,-278.74"/>
<polygon fill="#63b8ff" stroke="#63b8ff" points="133.26,-281.74 139.19,-272.96 129.08,-276.13 133.26,-281.74"/>
</a>
</g>
</g>
<!-- Node37 -->
<g id="Node000037" class="node">
<title>Node37</title>
<g id="a_Node000037"><a xlink:href="group__ch9121x__base__driver.html#gafd1ba49f3b98f2011176aee791cf25bb" target="_top" xlink:title="set uart buffer length">
<polygon fill="white" stroke="#666666" points="261.88,-234 139.38,-234 139.38,-202 261.88,-202 261.88,-234"/>
<text xml:space="preserve" text-anchor="start" x="147.38" y="-220.5" font-family="Helvetica,sans-Serif" font-size="10.00">ch9121x_set_uart_buffer</text>
<text xml:space="preserve" text-anchor="middle" x="200.62" y="-208.5" font-family="Helvetica,sans-Serif" font-size="10.00">_length</text>
</a>
</g>
</g>
<!-- Node1&#45;&gt;Node37 -->
<g id="edge36_Node000001_Node000037" class="edge">
<title>Node1&#45;&gt;Node37</title>
<g id="a_edge36_Node000001_Node000037"><a xlink:title=" ">
<path fill="none" stroke="#63b8ff" d="M47.66,-813.91C48.1,-744.3 53.9,-335.33 129.25,-243 129.69,-242.47 130.13,-241.94 130.59,-241.43"/>
<polygon fill="#63b8ff" stroke="#63b8ff" points="132.6,-244.32 137.8,-235.09 127.98,-239.07 132.6,-244.32"/>
</a>
</g>
</g>
<!-- Node38 -->
<g id="Node000038" class="node">
<title>Node38</title>
<g id="a_Node000038"><a xlink:href="group__ch9121x__base__driver.html#gafed7d314bdd78cda38977be39f713d75" target="_top" xlink:title="set uart config">
<polygon fill="white" stroke="#666666" points="263,-184 138.25,-184 138.25,-164 263,-164 263,-184"/>
<text xml:space="preserve" text-anchor="middle" x="200.62" y="-170.5" font-family="Helvetica,sans-Serif" font-size="10.00">ch9121x_set_uart_config</text>
</a>
</g>
</g>
<!-- Node1&#45;&gt;Node38 -->
<g id="edge37_Node000001_Node000038" class="edge">
<title>Node1&#45;&gt;Node38</title>
<g id="a_edge37_Node000001_Node000038"><a xlink:title=" ">
<path fill="none" stroke="#63b8ff" d="M47.46,-813.93C46.46,-740.76 43.87,-290.76 129.25,-193 129.72,-192.46 130.2,-191.94 130.69,-191.43"/>
<polygon fill="#63b8ff" stroke="#63b8ff" points="132.78,-194.24 138.48,-185.31 128.46,-188.74 132.78,-194.24"/>
</a>
</g>
</g>
<!-- Node39 -->
<g id="Node000039" class="node">
<title>Node39</title>
<g id="a_Node000039"><a xlink:href="group__ch9121x__base__driver.html#ga3c89acd2c485b02984b7a0ceeb103982" target="_top" xlink:title="enable or disable uart auto flush">
<polygon fill="white" stroke="#666666" points="260.38,-146 140.88,-146 140.88,-126 260.38,-126 260.38,-146"/>
<text xml:space="preserve" text-anchor="middle" x="200.62" y="-132.5" font-family="Helvetica,sans-Serif" font-size="10.00">ch9121x_set_uart_flush</text>
</a>
</g>
</g>
<!-- Node1&#45;&gt;Node39 -->
<g id="edge38_Node000001_Node000039" class="edge">
<title>Node1&#45;&gt;Node39</title>
<g id="a_edge38_Node000001_Node000039"><a xlink:title=" ">
<path fill="none" stroke="#63b8ff" d="M48.2,-813.6C52.75,-732.81 83.98,-207.22 129.25,-155 129.96,-154.18 130.7,-153.4 131.46,-152.65"/>
<polygon fill="#63b8ff" stroke="#63b8ff" points="133.52,-155.49 139.41,-146.68 129.31,-149.89 133.52,-155.49"/>
</a>
</g>
</g>
<!-- Node40 -->
<g id="Node000040" class="node">
<title>Node40</title>
<g id="a_Node000040"><a xlink:href="group__ch9121x__base__driver.html#ga49aec55c4fc01715f06b608d8477cb73" target="_top" xlink:title="set uart timeout">
<polygon fill="white" stroke="#666666" points="266,-108 135.25,-108 135.25,-88 266,-88 266,-108"/>
<text xml:space="preserve" text-anchor="middle" x="200.62" y="-94.5" font-family="Helvetica,sans-Serif" font-size="10.00">ch9121x_set_uart_timeout</text>
</a>
</g>
</g>
<!-- Node1&#45;&gt;Node40 -->
<g id="edge39_Node000001_Node000040" class="edge">
<title>Node1&#45;&gt;Node40</title>
<g id="a_edge39_Node000001_Node000040"><a xlink:title=" ">
<path fill="none" stroke="#63b8ff" d="M48.13,-813.55C52.26,-730 81.52,-172.41 129.25,-117 129.71,-116.46 130.19,-115.94 130.68,-115.43"/>
<polygon fill="#63b8ff" stroke="#63b8ff" points="132.78,-118.23 138.44,-109.27 128.43,-112.75 132.78,-118.23"/>
</a>
</g>
</g>
<!-- Node41 -->
<g id="Node000041" class="node">
<title>Node41</title>
<g id="a_Node000041"><a xlink:href="group__ch9121x__base__driver.html#ga80d95eac29760c6ba3247a2b924dfde7" target="_top" xlink:title="convert the uart timeout to the register raw data">
<polygon fill="white" stroke="#666666" points="256.62,-70 144.62,-70 144.62,-38 256.62,-38 256.62,-70"/>
<text xml:space="preserve" text-anchor="start" x="152.62" y="-56.5" font-family="Helvetica,sans-Serif" font-size="10.00">ch9121x_uart_timeout</text>
<text xml:space="preserve" text-anchor="middle" x="200.62" y="-44.5" font-family="Helvetica,sans-Serif" font-size="10.00">_convert_to_register</text>
</a>
</g>
</g>
<!-- Node1&#45;&gt;Node41 -->
<g id="edge40_Node000001_Node000041" class="edge">
<title>Node1&#45;&gt;Node41</title>
<g id="a_edge40_Node000001_Node000041"><a xlink:title=" ">
<path fill="none" stroke="#63b8ff" d="M48.1,-813.57C52.13,-727.73 81.37,-139.52 129.25,-79 131.04,-76.73 133.06,-74.67 135.25,-72.79"/>
<polygon fill="#63b8ff" stroke="#63b8ff" points="136.94,-75.88 143.16,-67.3 132.95,-70.12 136.94,-75.88"/>
</a>
</g>
</g>
<!-- Node42 -->
<g id="Node000042" class="node">
<title>Node42</title>
<g id="a_Node000042"><a xlink:href="group__ch9121x__base__driver.html#ga8319e8bbe2638efdd15f29679d47d8ac" target="_top" xlink:title="write data">
<polygon fill="white" stroke="#666666" points="240.12,-20 161.12,-20 161.12,0 240.12,0 240.12,-20"/>
<text xml:space="preserve" text-anchor="middle" x="200.62" y="-6.5" font-family="Helvetica,sans-Serif" font-size="10.00">ch9121x_write</text>
</a>
</g>
</g>
<!-- Node1&#45;&gt;Node42 -->
<g id="edge41_Node000001_Node000042" class="edge">
<title>Node1&#45;&gt;Node42</title>
<g id="a_edge41_Node000001_Node000042"><a xlink:title=" ">
<path fill="none" stroke="#63b8ff" d="M47.99,-813.69C51.18,-724.98 75.77,-91.89 129.25,-29 134.66,-22.64 141.96,-18.29 149.81,-15.35"/>
<polygon fill="#63b8ff" stroke="#63b8ff" points="150.68,-18.74 159.29,-12.57 148.71,-12.02 150.68,-18.74"/>
</a>
</g>
</g>
</g>
</svg>
