<?xml version="1.0" encoding="UTF-8" standalone="no"?>
<!DOCTYPE svg PUBLIC "-//W3C//DTD SVG 1.1//EN"
 "http://www.w3.org/Graphics/SVG/1.1/DTD/svg11.dtd">
<!-- Generated by graphviz version 14.1.1 (20251213.1925)
 -->
<!-- Title: ch9121x_basic_init Pages: 1 -->
<svg width="286pt" height="642pt"
 viewBox="0.00 0.00 286.00 642.00" xmlns="http://www.w3.org/2000/svg" xmlns:xlink="http://www.w3.org/1999/xlink">
<g id="graph0" class="graph" transform="scale(1 1) rotate(0) translate(4 638)">
<title>ch9121x_basic_init</title>
<!-- Node1 -->
<g id="Node000001" class="node">
<title>Node1</title>
<g id="a_Node000001"><a xlink:title="basic example init">
<polygon fill="#999999" stroke="#666666" points="99.25,-327 0,-327 0,-307 99.25,-307 99.25,-327"/>
<text xml:space="preserve" text-anchor="middle" x="49.62" y="-313.5" font-family="Helvetica,sans-Serif" font-size="10.00">ch9121x_basic_init</text>
</a>
</g>
</g>
<!-- Node2 -->
<g id="Node000002" class="node">
<title>Node2</title>
<g id="a_Node000002"><a xlink:href="group__ch9121x__base__driver.html#gaf5fc2d2cbb72a33ee845608375385385" target="_top" xlink:title="initialize the chip">
<polygon fill="white" stroke="#666666" points="242,-634 171.25,-634 171.25,-614 242,-614 242,-634"/>
<text xml:space="preserve" text-anchor="middle" x="206.62" y="-620.5" font-family="Helvetica,sans-Serif" font-size="10.00">ch9121x_init</text>
</a>
</g>
</g>
<!-- Node1&#45;&gt;Node2 -->
<g id="edge1_Node000001_Node000002" class="edge">
<title>Node1&#45;&gt;Node2</title>
<g id="a_edge1_Node000001_Node000002"><a xlink:title=" ">
<path fill="none" stroke="#63b8ff" d="M50.32,-327.44C49.68,-369.05 53.1,-524.65 135.25,-605 142,-611.61 150.8,-615.97 159.88,-618.85"/>
<polygon fill="#63b8ff" stroke="#63b8ff" points="158.95,-622.22 169.5,-621.29 160.67,-615.44 158.95,-622.22"/>
</a>
</g>
</g>
<!-- Node3 -->
<g id="Node000003" class="node">
<title>Node3</title>
<g id="a_Node000003"><a xlink:href="group__ch9121x__interface__driver.html#ga05d375b8b091d4e5666aabd8c155ad37" target="_top" xlink:title="interface cfg gpio deinit">
<polygon fill="white" stroke="#666666" points="263.75,-596 149.5,-596 149.5,-564 263.75,-564 263.75,-596"/>
<text xml:space="preserve" text-anchor="start" x="157.5" y="-582.5" font-family="Helvetica,sans-Serif" font-size="10.00">ch9121x_interface_cfg</text>
<text xml:space="preserve" text-anchor="middle" x="206.62" y="-570.5" font-family="Helvetica,sans-Serif" font-size="10.00">_gpio_deinit</text>
</a>
</g>
</g>
<!-- Node1&#45;&gt;Node3 -->
<g id="edge2_Node000001_Node000003" class="edge">
<title>Node1&#45;&gt;Node3</title>
<g id="a_edge2_Node000001_Node000003"><a xlink:title=" ">
<path fill="none" stroke="#63b8ff" d="M51.23,-327.2C53.94,-363.49 67.95,-487.72 135.25,-555 136.64,-556.39 138.11,-557.7 139.64,-558.93"/>
<polygon fill="#63b8ff" stroke="#63b8ff" points="137.56,-561.75 147.82,-564.42 141.46,-555.94 137.56,-561.75"/>
</a>
</g>
</g>
<!-- Node4 -->
<g id="Node000004" class="node">
<title>Node4</title>
<g id="a_Node000004"><a xlink:href="group__ch9121x__interface__driver.html#ga20ca254f1753f0491e756bdd935a66b1" target="_top" xlink:title="interface cfg gpio init">
<polygon fill="white" stroke="#666666" points="263.75,-546 149.5,-546 149.5,-514 263.75,-514 263.75,-546"/>
<text xml:space="preserve" text-anchor="start" x="157.5" y="-532.5" font-family="Helvetica,sans-Serif" font-size="10.00">ch9121x_interface_cfg</text>
<text xml:space="preserve" text-anchor="middle" x="206.62" y="-520.5" font-family="Helvetica,sans-Serif" font-size="10.00">_gpio_init</text>
</a>
</g>
</g>
<!-- Node1&#45;&gt;Node4 -->
<g id="edge3_Node000001_Node000004" class="edge">
<title>Node1&#45;&gt;Node4</title>
<g id="a_edge3_Node000001_Node000004"><a xlink:title=" ">
<path fill="none" stroke="#63b8ff" d="M52.32,-327.19C58.03,-358.39 79.45,-453.58 135.25,-505 136.66,-506.3 138.14,-507.53 139.68,-508.7"/>
<polygon fill="#63b8ff" stroke="#63b8ff" points="137.48,-511.44 147.78,-513.91 141.26,-505.56 137.48,-511.44"/>
</a>
</g>
</g>
<!-- Node5 -->
<g id="Node000005" class="node">
<title>Node5</title>
<g id="a_Node000005"><a xlink:href="group__ch9121x__interface__driver.html#gaafc642da5cb630766bfbc4037827d33f" target="_top" xlink:title="interface cfg gpio write">
<polygon fill="white" stroke="#666666" points="263.75,-496 149.5,-496 149.5,-464 263.75,-464 263.75,-496"/>
<text xml:space="preserve" text-anchor="start" x="157.5" y="-482.5" font-family="Helvetica,sans-Serif" font-size="10.00">ch9121x_interface_cfg</text>
<text xml:space="preserve" text-anchor="middle" x="206.62" y="-470.5" font-family="Helvetica,sans-Serif" font-size="10.00">_gpio_write</text>
</a>
</g>
</g>
<!-- Node1&#45;&gt;Node5 -->
<g id="edge4_Node000001_Node000005" class="edge">
<title>Node1&#45;&gt;Node5</title>
<g id="a_edge4_Node000001_Node000005"><a xlink:title=" ">
<path fill="none" stroke="#63b8ff" d="M54.17,-327.3C63.42,-352.7 90.71,-418.9 135.25,-455 136.57,-456.07 137.94,-457.1 139.36,-458.08"/>
<polygon fill="#63b8ff" stroke="#63b8ff" points="137.51,-461.06 147.88,-463.21 141.11,-455.06 137.51,-461.06"/>
</a>
</g>
</g>
<!-- Node6 -->
<g id="Node000006" class="node">
<title>Node6</title>
<g id="a_Node000006"><a xlink:href="group__ch9121x__interface__driver.html#ga3341e88131cc4c082b248822d0fd4c39" target="_top" xlink:title="interface print format data">
<polygon fill="white" stroke="#666666" points="270.12,-446 143.12,-446 143.12,-414 270.12,-414 270.12,-446"/>
<text xml:space="preserve" text-anchor="start" x="151.12" y="-432.5" font-family="Helvetica,sans-Serif" font-size="10.00">ch9121x_interface_debug</text>
<text xml:space="preserve" text-anchor="middle" x="206.62" y="-420.5" font-family="Helvetica,sans-Serif" font-size="10.00">_print</text>
</a>
</g>
</g>
<!-- Node1&#45;&gt;Node6 -->
<g id="edge5_Node000001_Node000006" class="edge">
<title>Node1&#45;&gt;Node6</title>
<g id="a_edge5_Node000001_Node000006"><a xlink:title=" ">
<path fill="none" stroke="#63b8ff" d="M58.06,-327.46C71.51,-345.66 101.59,-383.28 135.25,-405 137.21,-406.26 139.24,-407.47 141.32,-408.63"/>
<polygon fill="#63b8ff" stroke="#63b8ff" points="139.5,-411.63 150.01,-412.98 142.64,-405.38 139.5,-411.63"/>
</a>
</g>
</g>
<!-- Node7 -->
<g id="Node000007" class="node">
<title>Node7</title>
<g id="a_Node000007"><a xlink:href="group__ch9121x__interface__driver.html#gaae20e683a9b225ea4b9760c80084f1ae" target="_top" xlink:title="interface delay ms">
<polygon fill="white" stroke="#666666" points="278,-396 135.25,-396 135.25,-376 278,-376 278,-396"/>
<text xml:space="preserve" text-anchor="middle" x="206.62" y="-382.5" font-family="Helvetica,sans-Serif" font-size="10.00">ch9121x_interface_delay_ms</text>
</a>
</g>
</g>
<!-- Node1&#45;&gt;Node7 -->
<g id="edge6_Node000001_Node000007" class="edge">
<title>Node1&#45;&gt;Node7</title>
<g id="a_edge6_Node000001_Node000007"><a xlink:title=" ">
<path fill="none" stroke="#63b8ff" d="M65.27,-327.32C81.65,-338.46 109.3,-356.07 135.25,-367 139.77,-368.9 144.53,-370.67 149.36,-372.29"/>
<polygon fill="#63b8ff" stroke="#63b8ff" points="147.93,-375.51 158.52,-375.15 150.02,-368.83 147.93,-375.51"/>
</a>
</g>
</g>
<!-- Node8 -->
<g id="Node000008" class="node">
<title>Node8</title>
<g id="a_Node000008"><a xlink:href="group__ch9121x__interface__driver.html#ga7ceb94814658c9adfb3a2f100a6d6b1a" target="_top" xlink:title="interface reset gpio deinit">
<polygon fill="white" stroke="#666666" points="267.88,-358 145.38,-358 145.38,-326 267.88,-326 267.88,-358"/>
<text xml:space="preserve" text-anchor="start" x="153.38" y="-344.5" font-family="Helvetica,sans-Serif" font-size="10.00">ch9121x_interface_reset</text>
<text xml:space="preserve" text-anchor="middle" x="206.62" y="-332.5" font-family="Helvetica,sans-Serif" font-size="10.00">_gpio_deinit</text>
</a>
</g>
</g>
<!-- Node1&#45;&gt;Node8 -->
<g id="edge7_Node000001_Node000008" class="edge">
<title>Node1&#45;&gt;Node8</title>
<g id="a_edge7_Node000001_Node000008"><a xlink:title=" ">
<path fill="none" stroke="#63b8ff" d="M99.67,-324.91C110.56,-326.67 122.31,-328.56 133.9,-330.43"/>
<polygon fill="#63b8ff" stroke="#63b8ff" points="133,-333.83 143.43,-331.97 134.11,-326.92 133,-333.83"/>
</a>
</g>
</g>
<!-- Node9 -->
<g id="Node000009" class="node">
<title>Node9</title>
<g id="a_Node000009"><a xlink:href="group__ch9121x__interface__driver.html#gaf4ac07c22fd6066e673294ada415acb6" target="_top" xlink:title="interface reset gpio init">
<polygon fill="white" stroke="#666666" points="267.88,-308 145.38,-308 145.38,-276 267.88,-276 267.88,-308"/>
<text xml:space="preserve" text-anchor="start" x="153.38" y="-294.5" font-family="Helvetica,sans-Serif" font-size="10.00">ch9121x_interface_reset</text>
<text xml:space="preserve" text-anchor="middle" x="206.62" y="-282.5" font-family="Helvetica,sans-Serif" font-size="10.00">_gpio_init</text>
</a>
</g>
</g>
<!-- Node1&#45;&gt;Node9 -->
<g id="edge8_Node000001_Node000009" class="edge">
<title>Node1&#45;&gt;Node9</title>
<g id="a_edge8_Node000001_Node000009"><a xlink:title=" ">
<path fill="none" stroke="#63b8ff" d="M99.67,-309.09C110.56,-307.33 122.31,-305.44 133.9,-303.57"/>
<polygon fill="#63b8ff" stroke="#63b8ff" points="134.11,-307.08 143.43,-302.03 133,-300.17 134.11,-307.08"/>
</a>
</g>
</g>
<!-- Node10 -->
<g id="Node000010" class="node">
<title>Node10</title>
<g id="a_Node000010"><a xlink:href="group__ch9121x__interface__driver.html#ga912292ac47c07c529cdfad03b89f97f6" target="_top" xlink:title="interface reset gpio write">
<polygon fill="white" stroke="#666666" points="267.88,-258 145.38,-258 145.38,-226 267.88,-226 267.88,-258"/>
<text xml:space="preserve" text-anchor="start" x="153.38" y="-244.5" font-family="Helvetica,sans-Serif" font-size="10.00">ch9121x_interface_reset</text>
<text xml:space="preserve" text-anchor="middle" x="206.62" y="-232.5" font-family="Helvetica,sans-Serif" font-size="10.00">_gpio_write</text>
</a>
</g>
</g>
<!-- Node1&#45;&gt;Node10 -->
<g id="edge9_Node000001_Node000010" class="edge">
<title>Node1&#45;&gt;Node10</title>
<g id="a_edge9_Node000001_Node000010"><a xlink:title=" ">
<path fill="none" stroke="#63b8ff" d="M66.04,-306.66C82.64,-295.83 110.05,-278.78 135.25,-267 138.38,-265.54 141.62,-264.11 144.91,-262.72"/>
<polygon fill="#63b8ff" stroke="#63b8ff" points="146.17,-265.99 154.14,-259.01 143.56,-259.49 146.17,-265.99"/>
</a>
</g>
</g>
<!-- Node11 -->
<g id="Node000011" class="node">
<title>Node11</title>
<g id="a_Node000011"><a xlink:href="group__ch9121x__interface__driver.html#gae5acda4aa838a825437cd9aec8c63abb" target="_top" xlink:title="interface uart deinit">
<polygon fill="white" stroke="#666666" points="265.25,-208 148,-208 148,-176 265.25,-176 265.25,-208"/>
<text xml:space="preserve" text-anchor="start" x="156" y="-194.5" font-family="Helvetica,sans-Serif" font-size="10.00">ch9121x_interface_uart</text>
<text xml:space="preserve" text-anchor="middle" x="206.62" y="-182.5" font-family="Helvetica,sans-Serif" font-size="10.00">_deinit</text>
</a>
</g>
</g>
<!-- Node1&#45;&gt;Node11 -->
<g id="edge10_Node000001_Node000011" class="edge">
<title>Node1&#45;&gt;Node11</title>
<g id="a_edge10_Node000001_Node000011"><a xlink:title=" ">
<path fill="none" stroke="#63b8ff" d="M56.73,-306.66C69.07,-286.58 98.96,-242.09 135.25,-217 137.01,-215.78 138.84,-214.62 140.71,-213.51"/>
<polygon fill="#63b8ff" stroke="#63b8ff" points="141.89,-216.84 149.09,-209.07 138.61,-210.66 141.89,-216.84"/>
</a>
</g>
</g>
<!-- Node12 -->
<g id="Node000012" class="node">
<title>Node12</title>
<g id="a_Node000012"><a xlink:href="group__ch9121x__interface__driver.html#ga59ea386b1bcccfe624f4e5bc52f8ed45" target="_top" xlink:title="interface uart flush">
<polygon fill="white" stroke="#666666" points="265.25,-158 148,-158 148,-126 265.25,-126 265.25,-158"/>
<text xml:space="preserve" text-anchor="start" x="156" y="-144.5" font-family="Helvetica,sans-Serif" font-size="10.00">ch9121x_interface_uart</text>
<text xml:space="preserve" text-anchor="middle" x="206.62" y="-132.5" font-family="Helvetica,sans-Serif" font-size="10.00">_flush</text>
</a>
</g>
</g>
<!-- Node1&#45;&gt;Node12 -->
<g id="edge11_Node000001_Node000012" class="edge">
<title>Node1&#45;&gt;Node12</title>
<g id="a_edge11_Node000001_Node000012"><a xlink:title=" ">
<path fill="none" stroke="#63b8ff" d="M53.65,-306.61C62.04,-279.61 88.11,-206.64 135.25,-167 136.34,-166.08 137.46,-165.2 138.62,-164.35"/>
<polygon fill="#63b8ff" stroke="#63b8ff" points="140.13,-167.53 146.72,-159.23 136.39,-161.62 140.13,-167.53"/>
</a>
</g>
</g>
<!-- Node13 -->
<g id="Node000013" class="node">
<title>Node13</title>
<g id="a_Node000013"><a xlink:href="group__ch9121x__interface__driver.html#gaf82a4eb2a3ffd0b276c21551dc79fca3" target="_top" xlink:title="interface uart init">
<polygon fill="white" stroke="#666666" points="274.25,-108 139,-108 139,-88 274.25,-88 274.25,-108"/>
<text xml:space="preserve" text-anchor="middle" x="206.62" y="-94.5" font-family="Helvetica,sans-Serif" font-size="10.00">ch9121x_interface_uart_init</text>
</a>
</g>
</g>
<!-- Node1&#45;&gt;Node13 -->
<g id="edge12_Node000001_Node000013" class="edge">
<title>Node1&#45;&gt;Node13</title>
<g id="a_edge12_Node000001_Node000013"><a xlink:title=" ">
<path fill="none" stroke="#63b8ff" d="M51.8,-306.9C56.16,-274.16 74.44,-170.03 135.25,-117 136.35,-116.04 137.49,-115.13 138.67,-114.26"/>
<polygon fill="#63b8ff" stroke="#63b8ff" points="140.27,-117.39 147.06,-109.25 136.68,-111.38 140.27,-117.39"/>
</a>
</g>
</g>
<!-- Node14 -->
<g id="Node000014" class="node">
<title>Node14</title>
<g id="a_Node000014"><a xlink:href="group__ch9121x__interface__driver.html#ga779cc85b6a5004c8c6b0dac58e21de2b" target="_top" xlink:title="interface uart read">
<polygon fill="white" stroke="#666666" points="277.25,-70 136,-70 136,-50 277.25,-50 277.25,-70"/>
<text xml:space="preserve" text-anchor="middle" x="206.62" y="-56.5" font-family="Helvetica,sans-Serif" font-size="10.00">ch9121x_interface_uart_read</text>
</a>
</g>
</g>
<!-- Node1&#45;&gt;Node14 -->
<g id="edge13_Node000001_Node000014" class="edge">
<title>Node1&#45;&gt;Node14</title>
<g id="a_edge13_Node000001_Node000014"><a xlink:title=" ">
<path fill="none" stroke="#63b8ff" d="M51.05,-306.61C53.16,-269.7 65.39,-143.62 135.25,-79 136.18,-78.14 137.14,-77.32 138.14,-76.53"/>
<polygon fill="#63b8ff" stroke="#63b8ff" points="139.95,-79.53 146.53,-71.22 136.2,-73.62 139.95,-79.53"/>
</a>
</g>
</g>
<!-- Node15 -->
<g id="Node000015" class="node">
<title>Node15</title>
<g id="a_Node000015"><a xlink:href="group__ch9121x__interface__driver.html#ga551f461ec6115efa9a172ebe3b6a9b23" target="_top" xlink:title="interface uart write">
<polygon fill="white" stroke="#666666" points="265.25,-32 148,-32 148,0 265.25,0 265.25,-32"/>
<text xml:space="preserve" text-anchor="start" x="156" y="-18.5" font-family="Helvetica,sans-Serif" font-size="10.00">ch9121x_interface_uart</text>
<text xml:space="preserve" text-anchor="middle" x="206.62" y="-6.5" font-family="Helvetica,sans-Serif" font-size="10.00">_write</text>
</a>
</g>
</g>
<!-- Node1&#45;&gt;Node15 -->
<g id="edge14_Node000001_Node000015" class="edge">
<title>Node1&#45;&gt;Node15</title>
<g id="a_edge14_Node000001_Node000015"><a xlink:title=" ">
<path fill="none" stroke="#63b8ff" d="M50.66,-306.61C51.35,-266.57 59.18,-120.47 135.25,-41 136.26,-39.95 137.31,-38.94 138.41,-37.97"/>
<polygon fill="#63b8ff" stroke="#63b8ff" points="140.26,-40.95 146.3,-32.25 136.15,-35.29 140.26,-40.95"/>
</a>
</g>
</g>
</g>
</svg>
