<?xml version="1.0" encoding="UTF-8" standalone="no"?>
<!DOCTYPE svg PUBLIC "-//W3C//DTD SVG 1.1//EN"
 "http://www.w3.org/Graphics/SVG/1.1/DTD/svg11.dtd">
<!-- Generated by graphviz version 14.1.1 (20251213.1925)
 -->
<!-- Title: ch9121x_basic_config Pages: 1 -->
<svg width="308pt" height="1024pt"
 viewBox="0.00 0.00 308.00 1024.00" xmlns="http://www.w3.org/2000/svg" xmlns:xlink="http://www.w3.org/1999/xlink">
<g id="graph0" class="graph" transform="scale(1 1) rotate(0) translate(4 1020)">
<title>ch9121x_basic_config</title>
<!-- Node1 -->
<g id="Node000001" class="node">
<title>Node1</title>
<g id="a_Node000001"><a xlink:title="basic example config">
<polygon fill="#999999" stroke="#666666" points="112.75,-512 0,-512 0,-492 112.75,-492 112.75,-512"/>
<text xml:space="preserve" text-anchor="middle" x="56.38" y="-498.5" font-family="Helvetica,sans-Serif" font-size="10.00">ch9121x_basic_config</text>
</a>
</g>
</g>
<!-- Node2 -->
<g id="Node000002" class="node">
<title>Node2</title>
<g id="a_Node000002"><a xlink:href="group__ch9121x__base__driver.html#ga94282668c4063ec462a948df795bf5d6" target="_top" xlink:title="convert the arp retry period to the register raw data">
<polygon fill="white" stroke="#666666" points="288.12,-1016 160.38,-1016 160.38,-984 288.12,-984 288.12,-1016"/>
<text xml:space="preserve" text-anchor="start" x="168.38" y="-1002.5" font-family="Helvetica,sans-Serif" font-size="10.00">ch9121x_arp_retry_period</text>
<text xml:space="preserve" text-anchor="middle" x="224.25" y="-990.5" font-family="Helvetica,sans-Serif" font-size="10.00">_convert_to_register</text>
</a>
</g>
</g>
<!-- Node1&#45;&gt;Node2 -->
<g id="edge1_Node000001_Node000002" class="edge">
<title>Node1&#45;&gt;Node2</title>
<g id="a_edge1_Node000001_Node000002"><a xlink:title=" ">
<path fill="none" stroke="#63b8ff" d="M57.97,-512.17C61.82,-574.26 84.99,-902.15 148.75,-975 149.46,-975.81 150.19,-976.59 150.95,-977.35"/>
<polygon fill="#63b8ff" stroke="#63b8ff" points="148.75,-980.07 158.74,-983.59 153.12,-974.6 148.75,-980.07"/>
</a>
</g>
</g>
<!-- Node3 -->
<g id="Node000003" class="node">
<title>Node3</title>
<g id="a_Node000003"><a xlink:href="group__ch9121x__base__driver.html#ga3eae14ebf28b4b3c0c16e3b8107489c7" target="_top" xlink:title="config and reset the chip">
<polygon fill="white" stroke="#666666" points="276.88,-966 171.62,-966 171.62,-934 276.88,-934 276.88,-966"/>
<text xml:space="preserve" text-anchor="start" x="179.62" y="-952.5" font-family="Helvetica,sans-Serif" font-size="10.00">ch9121x_config_and</text>
<text xml:space="preserve" text-anchor="middle" x="224.25" y="-940.5" font-family="Helvetica,sans-Serif" font-size="10.00">_reset</text>
</a>
</g>
</g>
<!-- Node1&#45;&gt;Node3 -->
<g id="edge2_Node000001_Node000003" class="edge">
<title>Node1&#45;&gt;Node3</title>
<g id="a_edge2_Node000001_Node000003"><a xlink:title=" ">
<path fill="none" stroke="#63b8ff" d="M58.23,-512.21C63.29,-570.48 91.14,-860.61 148.75,-925 152.37,-929.04 156.66,-932.44 161.33,-935.28"/>
<polygon fill="#63b8ff" stroke="#63b8ff" points="159.51,-938.28 170.01,-939.69 162.68,-932.04 159.51,-938.28"/>
</a>
</g>
</g>
<!-- Node4 -->
<g id="Node000004" class="node">
<title>Node4</title>
<g id="a_Node000004"><a xlink:href="group__ch9121x__interface__driver.html#ga3341e88131cc4c082b248822d0fd4c39" target="_top" xlink:title="interface print format data">
<polygon fill="white" stroke="#666666" points="287.75,-916 160.75,-916 160.75,-884 287.75,-884 287.75,-916"/>
<text xml:space="preserve" text-anchor="start" x="168.75" y="-902.5" font-family="Helvetica,sans-Serif" font-size="10.00">ch9121x_interface_debug</text>
<text xml:space="preserve" text-anchor="middle" x="224.25" y="-890.5" font-family="Helvetica,sans-Serif" font-size="10.00">_print</text>
</a>
</g>
</g>
<!-- Node1&#45;&gt;Node4 -->
<g id="edge3_Node000001_Node000004" class="edge">
<title>Node1&#45;&gt;Node4</title>
<g id="a_edge3_Node000001_Node000004"><a xlink:title=" ">
<path fill="none" stroke="#63b8ff" d="M58.57,-512.4C65.01,-566.89 97.3,-819.06 148.75,-875 149.6,-875.93 150.49,-876.82 151.42,-877.68"/>
<polygon fill="#63b8ff" stroke="#63b8ff" points="149.19,-880.39 159.27,-883.66 153.43,-874.82 149.19,-880.39"/>
</a>
</g>
</g>
<!-- Node5 -->
<g id="Node000005" class="node">
<title>Node5</title>
<g id="a_Node000005"><a xlink:href="group__ch9121x__base__driver.html#gaf28c5d7783aa54a229a80581f3959db1" target="_top" xlink:title="save to eeprom">
<polygon fill="white" stroke="#666666" points="289.25,-866 159.25,-866 159.25,-846 289.25,-846 289.25,-866"/>
<text xml:space="preserve" text-anchor="middle" x="224.25" y="-852.5" font-family="Helvetica,sans-Serif" font-size="10.00">ch9121x_save_to_eeprom</text>
</a>
</g>
</g>
<!-- Node1&#45;&gt;Node5 -->
<g id="edge4_Node000001_Node000005" class="edge">
<title>Node1&#45;&gt;Node5</title>
<g id="a_edge4_Node000001_Node000005"><a xlink:title=" ">
<path fill="none" stroke="#63b8ff" d="M58.8,-512.41C66,-563.73 100.08,-789.13 148.75,-837 149.63,-837.87 150.54,-838.69 151.49,-839.49"/>
<polygon fill="#63b8ff" stroke="#63b8ff" points="149.19,-842.16 159.44,-844.83 153.1,-836.35 149.19,-842.16"/>
</a>
</g>
</g>
<!-- Node6 -->
<g id="Node000006" class="node">
<title>Node6</title>
<g id="a_Node000006"><a xlink:href="group__ch9121x__base__driver.html#gaf78e38337a033ca1137dbdabdd1e0f01" target="_top" xlink:title="set arp retry">
<polygon fill="white" stroke="#666666" points="281.75,-828 166.75,-828 166.75,-808 281.75,-808 281.75,-828"/>
<text xml:space="preserve" text-anchor="middle" x="224.25" y="-814.5" font-family="Helvetica,sans-Serif" font-size="10.00">ch9121x_set_arp_retry</text>
</a>
</g>
</g>
<!-- Node1&#45;&gt;Node6 -->
<g id="edge5_Node000001_Node000006" class="edge">
<title>Node1&#45;&gt;Node6</title>
<g id="a_edge5_Node000001_Node000006"><a xlink:title=" ">
<path fill="none" stroke="#63b8ff" d="M57.19,-512.24C57.02,-554.44 62.22,-716.59 148.75,-799 151.03,-801.17 153.52,-803.1 156.16,-804.82"/>
<polygon fill="#63b8ff" stroke="#63b8ff" points="154.48,-807.89 164.96,-809.45 157.74,-801.69 154.48,-807.89"/>
</a>
</g>
</g>
<!-- Node7 -->
<g id="Node000007" class="node">
<title>Node7</title>
<g id="a_Node000007"><a xlink:href="group__ch9121x__base__driver.html#ga15f22ee564463cb3a83efca834653ba5" target="_top" xlink:title="set dest ip">
<polygon fill="white" stroke="#666666" points="278.38,-790 170.12,-790 170.12,-770 278.38,-770 278.38,-790"/>
<text xml:space="preserve" text-anchor="middle" x="224.25" y="-776.5" font-family="Helvetica,sans-Serif" font-size="10.00">ch9121x_set_dest_ip</text>
</a>
</g>
</g>
<!-- Node1&#45;&gt;Node7 -->
<g id="edge6_Node000001_Node000007" class="edge">
<title>Node1&#45;&gt;Node7</title>
<g id="a_edge6_Node000001_Node000007"><a xlink:title=" ">
<path fill="none" stroke="#63b8ff" d="M57.72,-512.25C59.6,-551.09 71.68,-690.54 148.75,-761 152.04,-764 155.73,-766.55 159.67,-768.7"/>
<polygon fill="#63b8ff" stroke="#63b8ff" points="157.95,-771.76 168.5,-772.67 160.81,-765.38 157.95,-771.76"/>
</a>
</g>
</g>
<!-- Node8 -->
<g id="Node000008" class="node">
<title>Node8</title>
<g id="a_Node000008"><a xlink:href="group__ch9121x__base__driver.html#ga0ccdc7b126ebb5eeb7cad5e69990916b" target="_top" xlink:title="set dest port">
<polygon fill="white" stroke="#666666" points="282.88,-752 165.62,-752 165.62,-732 282.88,-732 282.88,-752"/>
<text xml:space="preserve" text-anchor="middle" x="224.25" y="-738.5" font-family="Helvetica,sans-Serif" font-size="10.00">ch9121x_set_dest_port</text>
</a>
</g>
</g>
<!-- Node1&#45;&gt;Node8 -->
<g id="edge7_Node000001_Node000008" class="edge">
<title>Node1&#45;&gt;Node8</title>
<g id="a_edge7_Node000001_Node000008"><a xlink:title=" ">
<path fill="none" stroke="#63b8ff" d="M58.44,-512.44C62.61,-547.85 81.14,-664.39 148.75,-723 150.79,-724.77 152.98,-726.38 155.27,-727.84"/>
<polygon fill="#63b8ff" stroke="#63b8ff" points="153.39,-730.81 163.87,-732.36 156.65,-724.61 153.39,-730.81"/>
</a>
</g>
</g>
<!-- Node9 -->
<g id="Node000009" class="node">
<title>Node9</title>
<g id="a_Node000009"><a xlink:href="group__ch9121x__base__driver.html#gaacd14c29adebcc22f1bfcdd2b102a786" target="_top" xlink:title="enable or disable dhcp">
<polygon fill="white" stroke="#666666" points="273.12,-714 175.38,-714 175.38,-694 273.12,-694 273.12,-714"/>
<text xml:space="preserve" text-anchor="middle" x="224.25" y="-700.5" font-family="Helvetica,sans-Serif" font-size="10.00">ch9121x_set_dhcp</text>
</a>
</g>
</g>
<!-- Node1&#45;&gt;Node9 -->
<g id="edge8_Node000001_Node000009" class="edge">
<title>Node1&#45;&gt;Node9</title>
<g id="a_edge8_Node000001_Node000009"><a xlink:title=" ">
<path fill="none" stroke="#63b8ff" d="M59.35,-512.17C65.94,-543.25 90.15,-637.74 148.75,-685 153.49,-688.82 158.91,-691.89 164.61,-694.34"/>
<polygon fill="#63b8ff" stroke="#63b8ff" points="163.08,-697.51 173.67,-697.62 165.46,-690.93 163.08,-697.51"/>
</a>
</g>
</g>
<!-- Node10 -->
<g id="Node000010" class="node">
<title>Node10</title>
<g id="a_Node000010"><a xlink:href="group__ch9121x__base__driver.html#gabfb253a5ce2539ed7caa68b2cab3d38a" target="_top" xlink:title="enable or disable disconnect with no rj45">
<polygon fill="white" stroke="#666666" points="286.25,-676 162.25,-676 162.25,-644 286.25,-644 286.25,-676"/>
<text xml:space="preserve" text-anchor="start" x="170.25" y="-662.5" font-family="Helvetica,sans-Serif" font-size="10.00">ch9121x_set_disconnect</text>
<text xml:space="preserve" text-anchor="middle" x="224.25" y="-650.5" font-family="Helvetica,sans-Serif" font-size="10.00">_with_no_rj45</text>
</a>
</g>
</g>
<!-- Node1&#45;&gt;Node10 -->
<g id="edge9_Node000001_Node000010" class="edge">
<title>Node1&#45;&gt;Node10</title>
<g id="a_edge9_Node000001_Node000010"><a xlink:title=" ">
<path fill="none" stroke="#63b8ff" d="M61.67,-512.34C72.49,-537.19 103.35,-600.75 148.75,-635 150.11,-636.03 151.52,-637.01 152.96,-637.96"/>
<polygon fill="#63b8ff" stroke="#63b8ff" points="151.21,-640.99 161.63,-642.91 154.68,-634.91 151.21,-640.99"/>
</a>
</g>
</g>
<!-- Node11 -->
<g id="Node000011" class="node">
<title>Node11</title>
<g id="a_Node000011"><a xlink:href="group__ch9121x__base__driver.html#gab2c3c4f8a4c191b83f2d1216610a39f4" target="_top" xlink:title="set eth cfg">
<polygon fill="white" stroke="#666666" points="278.75,-626 169.75,-626 169.75,-606 278.75,-606 278.75,-626"/>
<text xml:space="preserve" text-anchor="middle" x="224.25" y="-612.5" font-family="Helvetica,sans-Serif" font-size="10.00">ch9121x_set_eth_cfg</text>
</a>
</g>
</g>
<!-- Node1&#45;&gt;Node11 -->
<g id="edge10_Node000001_Node000011" class="edge">
<title>Node1&#45;&gt;Node11</title>
<g id="a_edge10_Node000001_Node000011"><a xlink:title=" ">
<path fill="none" stroke="#63b8ff" d="M64.32,-512.39C78.03,-532.07 110.58,-574.78 148.75,-597 151.92,-598.85 155.27,-600.52 158.73,-602.03"/>
<polygon fill="#63b8ff" stroke="#63b8ff" points="157.32,-605.23 167.91,-605.54 159.82,-598.7 157.32,-605.23"/>
</a>
</g>
</g>
<!-- Node12 -->
<g id="Node000012" class="node">
<title>Node12</title>
<g id="a_Node000012"><a xlink:href="group__ch9121x__base__driver.html#gad554e584ed287c25d2edf1211d50346a" target="_top" xlink:title="set gateway">
<polygon fill="white" stroke="#666666" points="281,-588 167.5,-588 167.5,-568 281,-568 281,-588"/>
<text xml:space="preserve" text-anchor="middle" x="224.25" y="-574.5" font-family="Helvetica,sans-Serif" font-size="10.00">ch9121x_set_gateway</text>
</a>
</g>
</g>
<!-- Node1&#45;&gt;Node12 -->
<g id="edge11_Node000001_Node000012" class="edge">
<title>Node1&#45;&gt;Node12</title>
<g id="a_edge11_Node000001_Node000012"><a xlink:title=" ">
<path fill="none" stroke="#63b8ff" d="M70.88,-512.3C88.09,-524.98 119.18,-546.37 148.75,-559 153.1,-560.86 157.67,-562.57 162.32,-564.13"/>
<polygon fill="#63b8ff" stroke="#63b8ff" points="161.22,-567.45 171.81,-567.07 163.29,-560.76 161.22,-567.45"/>
</a>
</g>
</g>
<!-- Node13 -->
<g id="Node000013" class="node">
<title>Node13</title>
<g id="a_Node000013"><a xlink:href="group__ch9121x__base__driver.html#gac49d370c8c0489ec8161c3eaaf1efcbc" target="_top" xlink:title="set ip address">
<polygon fill="white" stroke="#666666" points="266.38,-550 182.12,-550 182.12,-530 266.38,-530 266.38,-550"/>
<text xml:space="preserve" text-anchor="middle" x="224.25" y="-536.5" font-family="Helvetica,sans-Serif" font-size="10.00">ch9121x_set_ip</text>
</a>
</g>
</g>
<!-- Node1&#45;&gt;Node13 -->
<g id="edge12_Node000001_Node000013" class="edge">
<title>Node1&#45;&gt;Node13</title>
<g id="a_edge12_Node000001_Node000013"><a xlink:title=" ">
<path fill="none" stroke="#63b8ff" d="M103.14,-512.48C124.13,-517.29 149.12,-523.02 170.85,-528"/>
<polygon fill="#63b8ff" stroke="#63b8ff" points="169.88,-531.36 180.41,-530.19 171.45,-524.54 169.88,-531.36"/>
</a>
</g>
</g>
<!-- Node14 -->
<g id="Node000014" class="node">
<title>Node14</title>
<g id="a_Node000014"><a xlink:href="group__ch9121x__base__driver.html#ga712df49d28696a13598176dfe1eca873" target="_top" xlink:title="set mode">
<polygon fill="white" stroke="#666666" points="274.62,-512 173.88,-512 173.88,-492 274.62,-492 274.62,-512"/>
<text xml:space="preserve" text-anchor="middle" x="224.25" y="-498.5" font-family="Helvetica,sans-Serif" font-size="10.00">ch9121x_set_mode</text>
</a>
</g>
</g>
<!-- Node1&#45;&gt;Node14 -->
<g id="edge13_Node000001_Node000014" class="edge">
<title>Node1&#45;&gt;Node14</title>
<g id="a_edge13_Node000001_Node000014"><a xlink:title=" ">
<path fill="none" stroke="#63b8ff" d="M113.07,-502C128.82,-502 146.05,-502 162.11,-502"/>
<polygon fill="#63b8ff" stroke="#63b8ff" points="162.04,-505.5 172.04,-502 162.04,-498.5 162.04,-505.5"/>
</a>
</g>
</g>
<!-- Node15 -->
<g id="Node000015" class="node">
<title>Node15</title>
<g id="a_Node000015"><a xlink:href="group__ch9121x__base__driver.html#ga87dc10f0275124cbc70ad22a1c8faa03" target="_top" xlink:title="enable or disable uart port2">
<polygon fill="white" stroke="#666666" points="273.5,-474 175,-474 175,-454 273.5,-454 273.5,-474"/>
<text xml:space="preserve" text-anchor="middle" x="224.25" y="-460.5" font-family="Helvetica,sans-Serif" font-size="10.00">ch9121x_set_port2</text>
</a>
</g>
</g>
<!-- Node1&#45;&gt;Node15 -->
<g id="edge14_Node000001_Node000015" class="edge">
<title>Node1&#45;&gt;Node15</title>
<g id="a_edge14_Node000001_Node000015"><a xlink:title=" ">
<path fill="none" stroke="#63b8ff" d="M103.14,-491.52C122.72,-487.03 145.79,-481.75 166.44,-477.01"/>
<polygon fill="#63b8ff" stroke="#63b8ff" points="167.19,-480.43 176.16,-474.79 165.63,-473.61 167.19,-480.43"/>
</a>
</g>
</g>
<!-- Node16 -->
<g id="Node000016" class="node">
<title>Node16</title>
<g id="a_Node000016"><a xlink:href="group__ch9121x__base__driver.html#ga9955b0c0ce86a79fee1a434131775e40" target="_top" xlink:title="set source port">
<polygon fill="white" stroke="#666666" points="288.12,-436 160.38,-436 160.38,-416 288.12,-416 288.12,-436"/>
<text xml:space="preserve" text-anchor="middle" x="224.25" y="-422.5" font-family="Helvetica,sans-Serif" font-size="10.00">ch9121x_set_source_port</text>
</a>
</g>
</g>
<!-- Node1&#45;&gt;Node16 -->
<g id="edge15_Node000001_Node000016" class="edge">
<title>Node1&#45;&gt;Node16</title>
<g id="a_edge15_Node000001_Node000016"><a xlink:title=" ">
<path fill="none" stroke="#63b8ff" d="M70.88,-491.7C88.09,-479.02 119.18,-457.63 148.75,-445 153.1,-443.14 157.67,-441.43 162.32,-439.87"/>
<polygon fill="#63b8ff" stroke="#63b8ff" points="163.29,-443.24 171.81,-436.93 161.22,-436.55 163.29,-443.24"/>
</a>
</g>
</g>
<!-- Node17 -->
<g id="Node000017" class="node">
<title>Node17</title>
<g id="a_Node000017"><a xlink:href="group__ch9121x__base__driver.html#gaf930d360e6478f3ec257f3ed50571658" target="_top" xlink:title="enable or disable random source port number">
<polygon fill="white" stroke="#666666" points="277.25,-398 171.25,-398 171.25,-366 277.25,-366 277.25,-398"/>
<text xml:space="preserve" text-anchor="start" x="179.25" y="-384.5" font-family="Helvetica,sans-Serif" font-size="10.00">ch9121x_set_source</text>
<text xml:space="preserve" text-anchor="middle" x="224.25" y="-372.5" font-family="Helvetica,sans-Serif" font-size="10.00">_port_random</text>
</a>
</g>
</g>
<!-- Node1&#45;&gt;Node17 -->
<g id="edge16_Node000001_Node000017" class="edge">
<title>Node1&#45;&gt;Node17</title>
<g id="a_edge16_Node000001_Node000017"><a xlink:title=" ">
<path fill="none" stroke="#63b8ff" d="M64.69,-491.56C78.79,-472.19 111.62,-430.5 148.75,-407 152.47,-404.65 156.43,-402.49 160.52,-400.51"/>
<polygon fill="#63b8ff" stroke="#63b8ff" points="161.74,-403.8 169.49,-396.59 158.93,-397.39 161.74,-403.8"/>
</a>
</g>
</g>
<!-- Node18 -->
<g id="Node000018" class="node">
<title>Node18</title>
<g id="a_Node000018"><a xlink:href="group__ch9121x__base__driver.html#ga7265767fe107373f1b724f2aec7c2e34" target="_top" xlink:title="set subnet mask">
<polygon fill="white" stroke="#666666" points="291.88,-348 156.62,-348 156.62,-328 291.88,-328 291.88,-348"/>
<text xml:space="preserve" text-anchor="middle" x="224.25" y="-334.5" font-family="Helvetica,sans-Serif" font-size="10.00">ch9121x_set_subnet_mask</text>
</a>
</g>
</g>
<!-- Node1&#45;&gt;Node18 -->
<g id="edge17_Node000001_Node000018" class="edge">
<title>Node1&#45;&gt;Node18</title>
<g id="a_edge17_Node000001_Node000018"><a xlink:title=" ">
<path fill="none" stroke="#63b8ff" d="M60.8,-491.69C70.22,-464.98 99.19,-393.07 148.75,-357 150.53,-355.7 152.39,-354.5 154.31,-353.37"/>
<polygon fill="#63b8ff" stroke="#63b8ff" points="155.6,-356.64 163.01,-349.07 152.49,-350.37 155.6,-356.64"/>
</a>
</g>
</g>
<!-- Node19 -->
<g id="Node000019" class="node">
<title>Node19</title>
<g id="a_Node000019"><a xlink:href="group__ch9121x__base__driver.html#gaa052726602e1f8cfd295ac3e659ce5b4" target="_top" xlink:title="set tcp retry mode">
<polygon fill="white" stroke="#666666" points="296.38,-310 152.12,-310 152.12,-290 296.38,-290 296.38,-310"/>
<text xml:space="preserve" text-anchor="middle" x="224.25" y="-296.5" font-family="Helvetica,sans-Serif" font-size="10.00">ch9121x_set_tcp_retry_mode</text>
</a>
</g>
</g>
<!-- Node1&#45;&gt;Node19 -->
<g id="edge18_Node000001_Node000019" class="edge">
<title>Node1&#45;&gt;Node19</title>
<g id="a_edge18_Node000001_Node000019"><a xlink:title=" ">
<path fill="none" stroke="#63b8ff" d="M59.35,-491.83C65.94,-460.75 90.15,-366.26 148.75,-319 150.08,-317.93 151.47,-316.91 152.9,-315.96"/>
<polygon fill="#63b8ff" stroke="#63b8ff" points="154.51,-319.06 161.56,-311.16 151.12,-312.94 154.51,-319.06"/>
</a>
</g>
</g>
<!-- Node20 -->
<g id="Node000020" class="node">
<title>Node20</title>
<g id="a_Node000020"><a xlink:href="group__ch9121x__base__driver.html#ga12911254e0b498e61da87bb24a339d46" target="_top" xlink:title="set uart baud">
<polygon fill="white" stroke="#666666" points="284,-272 164.5,-272 164.5,-252 284,-252 284,-272"/>
<text xml:space="preserve" text-anchor="middle" x="224.25" y="-258.5" font-family="Helvetica,sans-Serif" font-size="10.00">ch9121x_set_uart_baud</text>
</a>
</g>
</g>
<!-- Node1&#45;&gt;Node20 -->
<g id="edge19_Node000001_Node000020" class="edge">
<title>Node1&#45;&gt;Node20</title>
<g id="a_edge19_Node000001_Node000020"><a xlink:title=" ">
<path fill="none" stroke="#63b8ff" d="M58.44,-491.56C62.61,-456.15 81.14,-339.61 148.75,-281 150.45,-279.52 152.25,-278.16 154.13,-276.9"/>
<polygon fill="#63b8ff" stroke="#63b8ff" points="155.69,-280.04 162.77,-272.16 152.32,-273.9 155.69,-280.04"/>
</a>
</g>
</g>
<!-- Node21 -->
<g id="Node000021" class="node">
<title>Node21</title>
<g id="a_Node000021"><a xlink:href="group__ch9121x__base__driver.html#gafd1ba49f3b98f2011176aee791cf25bb" target="_top" xlink:title="set uart buffer length">
<polygon fill="white" stroke="#666666" points="285.5,-234 163,-234 163,-202 285.5,-202 285.5,-234"/>
<text xml:space="preserve" text-anchor="start" x="171" y="-220.5" font-family="Helvetica,sans-Serif" font-size="10.00">ch9121x_set_uart_buffer</text>
<text xml:space="preserve" text-anchor="middle" x="224.25" y="-208.5" font-family="Helvetica,sans-Serif" font-size="10.00">_length</text>
</a>
</g>
</g>
<!-- Node1&#45;&gt;Node21 -->
<g id="edge20_Node000001_Node000021" class="edge">
<title>Node1&#45;&gt;Node21</title>
<g id="a_edge20_Node000001_Node000021"><a xlink:title=" ">
<path fill="none" stroke="#63b8ff" d="M57.9,-491.66C60.44,-453.09 74.52,-316.1 148.75,-243 150.15,-241.62 151.64,-240.31 153.18,-239.08"/>
<polygon fill="#63b8ff" stroke="#63b8ff" points="155.02,-242.06 161.41,-233.61 151.14,-236.23 155.02,-242.06"/>
</a>
</g>
</g>
<!-- Node22 -->
<g id="Node000022" class="node">
<title>Node22</title>
<g id="a_Node000022"><a xlink:href="group__ch9121x__base__driver.html#ga460c858e0243a9cc19b4b47eb4414f0e" target="_top" xlink:title="set uart clock mode">
<polygon fill="white" stroke="#666666" points="299.75,-184 148.75,-184 148.75,-164 299.75,-164 299.75,-184"/>
<text xml:space="preserve" text-anchor="middle" x="224.25" y="-170.5" font-family="Helvetica,sans-Serif" font-size="10.00">ch9121x_set_uart_clock_mode</text>
</a>
</g>
</g>
<!-- Node1&#45;&gt;Node22 -->
<g id="edge21_Node000001_Node000022" class="edge">
<title>Node1&#45;&gt;Node22</title>
<g id="a_edge21_Node000001_Node000022"><a xlink:title=" ">
<path fill="none" stroke="#63b8ff" d="M57.05,-491.65C56.27,-448.25 59.29,-279.14 148.75,-193 149.64,-192.14 150.56,-191.32 151.51,-190.54"/>
<polygon fill="#63b8ff" stroke="#63b8ff" points="153.11,-193.68 159.52,-185.24 149.25,-187.84 153.11,-193.68"/>
</a>
</g>
</g>
<!-- Node23 -->
<g id="Node000023" class="node">
<title>Node23</title>
<g id="a_Node000023"><a xlink:href="group__ch9121x__base__driver.html#gafed7d314bdd78cda38977be39f713d75" target="_top" xlink:title="set uart config">
<polygon fill="white" stroke="#666666" points="286.62,-146 161.88,-146 161.88,-126 286.62,-126 286.62,-146"/>
<text xml:space="preserve" text-anchor="middle" x="224.25" y="-132.5" font-family="Helvetica,sans-Serif" font-size="10.00">ch9121x_set_uart_config</text>
</a>
</g>
</g>
<!-- Node1&#45;&gt;Node23 -->
<g id="edge22_Node000001_Node000023" class="edge">
<title>Node1&#45;&gt;Node23</title>
<g id="a_edge22_Node000001_Node000023"><a xlink:title=" ">
<path fill="none" stroke="#63b8ff" d="M58.69,-491.57C65.53,-439.12 98.56,-204.8 148.75,-155 149.79,-153.97 150.88,-152.99 152.01,-152.06"/>
<polygon fill="#63b8ff" stroke="#63b8ff" points="153.67,-155.15 160.11,-146.74 149.83,-149.3 153.67,-155.15"/>
</a>
</g>
</g>
<!-- Node24 -->
<g id="Node000024" class="node">
<title>Node24</title>
<g id="a_Node000024"><a xlink:href="group__ch9121x__base__driver.html#ga3c89acd2c485b02984b7a0ceeb103982" target="_top" xlink:title="enable or disable uart auto flush">
<polygon fill="white" stroke="#666666" points="284,-108 164.5,-108 164.5,-88 284,-88 284,-108"/>
<text xml:space="preserve" text-anchor="middle" x="224.25" y="-94.5" font-family="Helvetica,sans-Serif" font-size="10.00">ch9121x_set_uart_flush</text>
</a>
</g>
</g>
<!-- Node1&#45;&gt;Node24 -->
<g id="edge23_Node000001_Node000024" class="edge">
<title>Node1&#45;&gt;Node24</title>
<g id="a_edge23_Node000001_Node000024"><a xlink:title=" ">
<path fill="none" stroke="#63b8ff" d="M58.41,-491.56C64.13,-435.75 93.72,-172.96 148.75,-117 150.54,-115.18 152.47,-113.53 154.52,-112.03"/>
<polygon fill="#63b8ff" stroke="#63b8ff" points="156,-115.22 162.85,-107.14 152.46,-109.18 156,-115.22"/>
</a>
</g>
</g>
<!-- Node25 -->
<g id="Node000025" class="node">
<title>Node25</title>
<g id="a_Node000025"><a xlink:href="group__ch9121x__base__driver.html#ga49aec55c4fc01715f06b608d8477cb73" target="_top" xlink:title="set uart timeout">
<polygon fill="white" stroke="#666666" points="289.62,-70 158.88,-70 158.88,-50 289.62,-50 289.62,-70"/>
<text xml:space="preserve" text-anchor="middle" x="224.25" y="-56.5" font-family="Helvetica,sans-Serif" font-size="10.00">ch9121x_set_uart_timeout</text>
</a>
</g>
</g>
<!-- Node1&#45;&gt;Node25 -->
<g id="edge24_Node000001_Node000025" class="edge">
<title>Node1&#45;&gt;Node25</title>
<g id="a_edge24_Node000001_Node000025"><a xlink:title=" ">
<path fill="none" stroke="#63b8ff" d="M58.16,-491.72C62.81,-433.08 88.79,-141.21 148.75,-79 149.48,-78.24 150.23,-77.51 151.01,-76.81"/>
<polygon fill="#63b8ff" stroke="#63b8ff" points="152.79,-79.84 158.91,-71.19 148.73,-74.14 152.79,-79.84"/>
</a>
</g>
</g>
<!-- Node26 -->
<g id="Node000026" class="node">
<title>Node26</title>
<g id="a_Node000026"><a xlink:href="group__ch9121x__base__driver.html#ga80d95eac29760c6ba3247a2b924dfde7" target="_top" xlink:title="convert the uart timeout to the register raw data">
<polygon fill="white" stroke="#666666" points="280.25,-32 168.25,-32 168.25,0 280.25,0 280.25,-32"/>
<text xml:space="preserve" text-anchor="start" x="176.25" y="-18.5" font-family="Helvetica,sans-Serif" font-size="10.00">ch9121x_uart_timeout</text>
<text xml:space="preserve" text-anchor="middle" x="224.25" y="-6.5" font-family="Helvetica,sans-Serif" font-size="10.00">_convert_to_register</text>
</a>
</g>
</g>
<!-- Node1&#45;&gt;Node26 -->
<g id="edge25_Node000001_Node000026" class="edge">
<title>Node1&#45;&gt;Node26</title>
<g id="a_edge25_Node000001_Node000026"><a xlink:title=" ">
<path fill="none" stroke="#63b8ff" d="M58.04,-491.69C62.19,-430.18 86.51,-111.76 148.75,-41 151.53,-37.84 154.71,-35.08 158.17,-32.67"/>
<polygon fill="#63b8ff" stroke="#63b8ff" points="159.65,-35.86 166.56,-27.83 156.15,-29.8 159.65,-35.86"/>
</a>
</g>
</g>
</g>
</svg>
